<svg width="177" height="34" viewBox="0 0 177 34" fill="none" xmlns="http://www.w3.org/2000/svg">
<g clip-path="url(#clip0_877_3384)">
<path fill-rule="evenodd" clip-rule="evenodd" d="M3.26653 14.578L0 19.869L8.29719 19.8985L11.5811 14.578L2.58112 0L3.26653 14.578Z" fill="#00FFF0"/>
<path fill-rule="evenodd" clip-rule="evenodd" d="M3.99298 29.1574H20.583L29.5844 14.578L20.583 0H6.18223L10.3395 6.73362H16.4257L21.2699 14.578L16.4257 22.4208H0.0193481L3.99298 29.1574Z" fill="#333333"/>
<path d="M41.4166 25.8694V3.47363H51.394C53.779 3.47363 55.8805 3.93729 57.6986 4.86461C59.4512 5.73171 60.9294 7.08422 61.9643 8.7676C62.9881 10.4393 63.5005 12.4061 63.5014 14.6678C63.5024 16.9296 62.99 18.8963 61.9643 20.568C60.9295 22.254 59.4502 23.6087 57.6957 24.4769C55.8766 25.4052 53.7751 25.8694 51.3911 25.8694H41.4166ZM46.5282 21.6463H51.1395C52.6029 21.6463 53.873 21.3636 54.9497 20.7981C56.0019 20.2568 56.8745 19.4113 57.4586 18.3673C58.0543 17.3111 58.3522 16.079 58.3522 14.6708C58.3522 13.2429 58.0543 12.0058 57.4586 10.9595C56.8704 9.92225 55.9979 9.08294 54.9483 8.54487C53.8715 7.98042 52.6014 7.6977 51.1381 7.69671H46.5282V21.6463Z" fill="#333333"/>
<path d="M72.3727 21.7102V16.521H82.5671V12.4646H72.3727L67.3232 12.4941V25.8699H84.3225V21.7102H72.3727Z" fill="#333333"/>
<path d="M72.3727 7.63181H83.9147V3.47363H67.3232V7.63181H72.3727Z" fill="#333333"/>
<path d="M93.6796 17.1858L96.5528 21.1566L93.4107 25.5095L93.1518 25.8694H87.4112L88.4277 24.4608L93.6796 17.1858Z" fill="#00FFF0"/>
<path d="M109.7 25.869H103.961L103.702 25.5091L100.768 21.4453L98.5585 18.3846L98.5556 18.389L98.5527 18.3846L95.6794 14.4152L95.6867 14.4064L88.9512 5.07371L87.9346 3.6665H93.6724L93.9327 4.02494L98.557 10.4311L103.18 4.02494L103.44 3.6665H109.178L108.161 5.07518L101.426 14.4064L108.683 24.4603L109.7 25.869Z" fill="#333333"/>
<path d="M113.957 25.8694V3.47363H118.161L131.114 19.5989H129.075V3.47363H134.093V25.8694H129.891L116.937 9.74409H118.976V25.8694H113.957Z" fill="#333333"/>
<path d="M144.349 7.63181H155.891V3.47363H139.3V7.63181H144.349Z" fill="#333333"/>
<path d="M144.349 21.7102V16.521H154.542V12.4646H144.349L139.3 12.4941V25.8699H156.299V21.7102H144.349Z" fill="#333333"/>
<path d="M164.893 25.8694V7.69671H157.868V3.47363H177V7.69671H169.974V25.8694H164.893Z" fill="#333333"/>
<path d="M106.73 30.395V31.1606H103.549V30.395H106.73ZM104.739 34.0001V31.6945H105.489V34.0001H104.739Z" fill="#333333"/>
<path d="M113.34 30.395V31.1606H110.186V30.395H113.34ZM110.932 33.2345H113.34V34.0001H110.186V31.6901H110.936H113.029V32.4557H110.932V33.2345Z" fill="#333333"/>
<path d="M120.191 32.5632L120.131 32.7505C120.007 33.1381 119.759 33.4716 119.426 33.697C119.092 33.9224 118.695 34.0264 118.296 33.9923C117.898 33.9581 117.523 33.7878 117.231 33.5089C116.94 33.2299 116.749 32.8588 116.69 32.4555C116.677 32.3676 116.671 32.2788 116.671 32.19C116.672 31.7111 116.86 31.2523 117.192 30.9141C117.524 30.5759 117.975 30.386 118.444 30.386C118.832 30.385 119.21 30.5152 119.518 30.7562C119.821 30.9919 120.041 31.3202 120.147 31.6929L120.199 31.8758H119.421L119.385 31.7888C119.3 31.5837 119.153 31.4118 118.965 31.2983C118.777 31.1848 118.558 31.1357 118.341 31.1581C118.124 31.1805 117.919 31.2733 117.757 31.4229C117.596 31.5725 117.485 31.771 117.442 31.9894C117.429 32.0574 117.422 32.1265 117.422 32.1959C117.422 32.2678 117.429 32.3394 117.443 32.4098C117.487 32.6229 117.595 32.8167 117.753 32.9639C117.91 33.1111 118.109 33.2043 118.321 33.2305C118.533 33.2567 118.747 33.2145 118.935 33.1099C119.122 33.0053 119.273 32.8435 119.365 32.6473L119.404 32.5676L120.191 32.5632Z" fill="#333333"/>
<path d="M126.782 30.4004V33.9995H126.03V32.4655H124.403V33.9995H123.652V30.4004H124.403V31.6999H126.03V30.4004H126.782Z" fill="#333333"/>
<path d="M133.104 30.3861V34H132.924L132.394 33.4601L131.504 32.5515L130.989 32.0278L130.239 31.2623V30.3684H130.43L132.357 32.3347V30.3861H133.104ZM130.239 32.016L130.989 32.7816V33.9941H130.239V32.016Z" fill="#333333"/>
<path d="M140.015 32.2034C140.015 32.5587 139.912 32.9061 139.719 33.2015C139.525 33.497 139.25 33.7272 138.928 33.8632C138.606 33.9992 138.252 34.0348 137.911 33.9654C137.569 33.8961 137.255 33.725 137.009 33.4738C136.763 33.2225 136.595 32.9024 136.527 32.5539C136.459 32.2053 136.494 31.8441 136.627 31.5158C136.76 31.1875 136.986 30.9069 137.276 30.7095C137.565 30.5121 137.906 30.4067 138.254 30.4067C138.721 30.4071 139.169 30.5965 139.499 30.9334C139.829 31.2702 140.015 31.727 140.015 32.2034ZM138.254 31.1561C138.051 31.1561 137.853 31.2175 137.684 31.3326C137.515 31.4476 137.383 31.6112 137.306 31.8026C137.228 31.9939 137.208 32.2045 137.247 32.4077C137.287 32.6108 137.385 32.7974 137.528 32.9439C137.672 33.0904 137.855 33.1901 138.054 33.2305C138.253 33.2709 138.46 33.2502 138.647 33.1709C138.835 33.0917 138.995 32.9574 139.108 32.7852C139.221 32.613 139.281 32.4105 139.281 32.2034C139.281 31.9257 139.172 31.6596 138.98 31.4632C138.787 31.2669 138.526 31.1565 138.254 31.1561Z" fill="#333333"/>
<path d="M146.283 33.2344V34H143.47V30.3684H144.221V33.2344H146.283Z" fill="#333333"/>
<path d="M152.787 32.2034C152.787 32.5587 152.683 32.9061 152.49 33.2015C152.296 33.497 152.021 33.7272 151.699 33.8632C151.378 33.9992 151.023 34.0348 150.682 33.9654C150.34 33.8961 150.026 33.725 149.78 33.4738C149.534 33.2225 149.366 32.9024 149.298 32.5539C149.23 32.2053 149.265 31.8441 149.398 31.5158C149.532 31.1875 149.757 30.9069 150.047 30.7095C150.337 30.5121 150.677 30.4067 151.025 30.4067C151.492 30.4071 151.94 30.5965 152.27 30.9334C152.601 31.2702 152.786 31.727 152.787 32.2034ZM151.025 31.1561C150.822 31.1561 150.624 31.2175 150.455 31.3326C150.286 31.4476 150.155 31.6112 150.077 31.8026C149.999 31.9939 149.979 32.2045 150.018 32.4077C150.058 32.6108 150.156 32.7974 150.299 32.9439C150.443 33.0904 150.626 33.1901 150.825 33.2305C151.024 33.2709 151.231 33.2502 151.418 33.1709C151.606 33.0917 151.766 32.9574 151.879 32.7852C151.992 32.613 152.052 32.4105 152.052 32.2034C152.052 31.9257 151.943 31.6596 151.751 31.4632C151.558 31.2669 151.298 31.1565 151.025 31.1561Z" fill="#333333"/>
<path d="M159.414 31.7006V32.4677V34.0003H157.869C157.397 34.0029 156.943 33.8177 156.603 33.484C156.433 33.3187 156.298 33.12 156.206 32.9C156.113 32.6799 156.066 32.443 156.066 32.2036C156.066 31.9643 156.113 31.7274 156.206 31.5073C156.298 31.2873 156.433 31.0886 156.603 30.9233C156.943 30.5881 157.398 30.4018 157.871 30.4041H159.409V31.1711H157.715C157.446 31.1711 157.189 31.2799 156.999 31.4735C156.809 31.6672 156.702 31.9298 156.702 32.2036C156.702 32.4775 156.809 32.7401 156.999 32.9338C157.189 33.1274 157.446 33.2362 157.715 33.2362H158.665V32.4691H157.788L157.751 32.3851L157.534 31.9072L157.441 31.7021L159.414 31.7006Z" fill="#333333"/>
<path d="M163.733 30.386V33.9999H162.982V30.386H163.733Z" fill="#333333"/>
<path d="M170.34 30.395V31.1606H167.18V30.395H170.34ZM167.931 33.2345H170.34V34.0001H167.18V31.6901H167.931H170.024V32.4557H167.931V33.2345Z" fill="#333333"/>
<path d="M176.572 32.364C176.665 32.5303 176.714 32.7187 176.713 32.9103C176.713 33.1019 176.663 33.29 176.569 33.4557C176.474 33.6214 176.339 33.7589 176.176 33.8544C176.013 33.9499 175.829 34 175.641 33.9998H174.578C174.354 33.9998 174.136 33.9249 173.958 33.7867C173.779 33.6484 173.65 33.4544 173.59 33.2343C173.566 33.1433 173.554 33.0496 173.554 32.9555H174.289C174.289 33.0169 174.308 33.0768 174.343 33.1267C174.378 33.1767 174.427 33.2143 174.484 33.2343H175.641C175.726 33.2343 175.808 33.1998 175.868 33.1384C175.928 33.0769 175.962 32.9937 175.962 32.9068C175.962 32.82 175.928 32.7367 175.868 32.6753C175.808 32.6138 175.726 32.5793 175.641 32.5793H174.629C174.481 32.5791 174.336 32.548 174.201 32.4881C174.066 32.4283 173.944 32.3408 173.843 32.2312C173.788 32.1695 173.74 32.1017 173.699 32.0291C173.606 31.8628 173.557 31.6744 173.557 31.4828C173.558 31.2912 173.608 31.1031 173.702 30.9374C173.797 30.7717 173.932 30.6343 174.095 30.5388C174.258 30.4433 174.442 30.3931 174.63 30.3933H175.712C175.936 30.3932 176.153 30.468 176.331 30.6063C176.51 30.7446 176.638 30.9387 176.698 31.1589C176.723 31.2496 176.736 31.3434 176.735 31.4376H175.999C175.999 31.3764 175.981 31.3167 175.946 31.2667C175.911 31.2168 175.862 31.1791 175.806 31.1589H174.63C174.545 31.1589 174.463 31.1934 174.403 31.2548C174.343 31.3162 174.309 31.3995 174.309 31.4863C174.309 31.5732 174.343 31.6565 174.403 31.7179C174.463 31.7793 174.545 31.8138 174.63 31.8138H175.642C175.831 31.8144 176.016 31.8656 176.179 31.9621C176.342 32.0587 176.478 32.1973 176.572 32.364Z" fill="#333333"/>
</g>
<defs>
<clipPath id="clip0_877_3384">
<rect width="177" height="34" fill="white"/>
</clipPath>
</defs>
</svg>
