<svg width="14" height="23" viewBox="0 0 14 23" fill="none" xmlns="http://www.w3.org/2000/svg">
<path d="M13.83 8.4573C13.7383 8.32131 13.6146 8.20997 13.4699 8.13309C13.3252 8.05621 13.1638 8.01613 13 8.01638H10V6.01216H12.2C12.4652 6.01216 12.7196 5.90658 12.9071 5.71865C13.0946 5.53072 13.2 5.27583 13.2 5.01005V1.00162C13.2 0.735844 13.0946 0.480954 12.9071 0.293022C12.7196 0.105091 12.4652 -0.000488281 12.2 -0.000488281H9C7.46174 -0.000488281 5.98649 0.61187 4.89878 1.70187C3.81107 2.79188 3.2 4.27024 3.2 5.81174V8.01638H1C0.734784 8.01638 0.48043 8.12195 0.292893 8.30989C0.105357 8.49782 0 8.75271 0 9.01848V13.0269C0 13.2927 0.105357 13.5476 0.292893 13.7355C0.48043 13.9234 0.734784 14.029 1 14.029H3.2V21.0438C3.2 21.3096 3.30536 21.5644 3.49289 21.7524C3.68043 21.9403 3.93478 22.0459 4.2 22.0459H9C9.26522 22.0459 9.51957 21.9403 9.70711 21.7524C9.89464 21.5644 10 21.3096 10 21.0438V14.029H11.4C11.6003 14.0292 11.796 13.9691 11.9618 13.8566C12.1276 13.744 12.2559 13.5842 12.33 13.3977L13.93 9.38926C13.9904 9.23752 14.0129 9.07328 13.9954 8.91084C13.978 8.74841 13.9212 8.59271 13.83 8.4573ZM10.72 12.0248H9C8.73478 12.0248 8.48043 12.1304 8.29289 12.3183C8.10536 12.5063 8 12.7611 8 13.0269V20.0417H5.2V13.0269C5.2 12.7611 5.09464 12.5063 4.90711 12.3183C4.71957 12.1304 4.46522 12.0248 4.2 12.0248H2V10.0206H4.2C4.46522 10.0206 4.71957 9.91501 4.90711 9.72708C5.09464 9.53915 5.2 9.28426 5.2 9.01848V5.81174C5.20264 4.8026 5.60384 3.83556 6.31591 3.12199C7.02798 2.40842 7.99299 2.00637 9 2.00373H11.2V4.00794H10.4C10.0614 3.95851 9.71631 3.97926 9.38605 4.06889C9.0558 4.15852 8.74741 4.31514 8.48 4.52904C8.31772 4.69929 8.19153 4.90072 8.10903 5.12117C8.02654 5.34162 7.98945 5.57653 8 5.81174V9.01848C8 9.28426 8.10536 9.53915 8.29289 9.72708C8.48043 9.91501 8.73478 10.0206 9 10.0206H11.52L10.72 12.0248Z" fill="#89899C"/>
</svg>
