<svg width="20" height="21" viewBox="0 0 20 21" fill="none" xmlns="http://www.w3.org/2000/svg">
<path d="M10 5.01005C9.01109 5.01005 8.04439 5.30391 7.22215 5.85448C6.3999 6.40504 5.75904 7.18758 5.3806 8.10314C5.00216 9.0187 4.90315 10.0261 5.09607 10.9981C5.289 11.97 5.7652 12.8628 6.46447 13.5636C7.16373 14.2643 8.05464 14.7415 9.02455 14.9349C9.99445 15.1282 10.9998 15.029 11.9134 14.6497C12.827 14.2705 13.6079 13.6283 14.1573 12.8043C14.7068 11.9803 15 11.0116 15 10.0206C15 8.69171 14.4732 7.41726 13.5355 6.4776C12.5979 5.53795 11.3261 5.01005 10 5.01005ZM10 13.0269C9.40666 13.0269 8.82664 12.8506 8.33329 12.5203C7.83994 12.1899 7.45542 11.7204 7.22836 11.1711C7.0013 10.6217 6.94189 10.0173 7.05764 9.43409C7.1734 8.85092 7.45912 8.31524 7.87868 7.8948C8.29824 7.47436 8.83279 7.18803 9.41473 7.07203C9.99667 6.95603 10.5999 7.01557 11.1481 7.24311C11.6962 7.47065 12.1648 7.85598 12.4944 8.35037C12.8241 8.84475 13 9.426 13 10.0206C13 10.8179 12.6839 11.5826 12.1213 12.1464C11.5587 12.7102 10.7956 13.0269 10 13.0269ZM15 4.00794C14.8022 4.00794 14.6089 4.06672 14.4444 4.17683C14.28 4.28694 14.1518 4.44345 14.0761 4.62656C14.0004 4.80967 13.9806 5.01116 14.0192 5.20555C14.0578 5.39994 14.153 5.5785 14.2929 5.71865C14.4327 5.8588 14.6109 5.95424 14.8049 5.9929C14.9989 6.03157 15.2 6.01173 15.3827 5.93588C15.5654 5.86003 15.7216 5.73159 15.8315 5.56679C15.9414 5.402 16 5.20825 16 5.01005C16 4.74428 15.8946 4.48939 15.7071 4.30145C15.5196 4.11352 15.2652 4.00794 15 4.00794ZM19.94 6.25266C19.9234 5.39629 19.7611 4.54903 19.46 3.74739C19.1808 3.01793 18.7516 2.35546 18.2003 1.803C17.649 1.25055 16.9879 0.820455 16.26 0.54065C15.4601 0.238915 14.6146 0.0762407 13.76 0.0596381C12.79 -0.000488337 12.47 -0.000488281 10 -0.000488281C7.53 -0.000488281 7.21 -0.000488337 6.24 0.0596381C5.38542 0.0762407 4.53995 0.238915 3.74 0.54065C3.01207 0.820455 2.35099 1.25055 1.7997 1.803C1.2484 2.35546 0.819216 3.01793 0.54 3.74739C0.238899 4.54903 0.0765676 5.39629 0.0599999 6.25266C-5.58794e-08 7.23473 0 7.55541 0 10.0206C0 12.4858 -5.58794e-08 12.8064 0.0599999 13.7885C0.0765676 14.6449 0.238899 15.4922 0.54 16.2938C0.819216 17.0233 1.2484 17.6857 1.7997 18.2382C2.35099 18.7906 3.01207 19.2207 3.74 19.5005C4.53995 19.8023 5.38542 19.9649 6.24 19.9815C7.24 19.9815 7.53 20.0417 10 20.0417C12.47 20.0417 12.79 20.0417 13.76 19.9815C14.6146 19.9649 15.4601 19.8023 16.26 19.5005C16.9879 19.2207 17.649 18.7906 18.2003 18.2382C18.7516 17.6857 19.1808 17.0233 19.46 16.2938C19.7611 15.4922 19.9234 14.6449 19.94 13.7885C19.94 12.7864 20 12.4858 20 10.0206C20 7.55541 20 7.23473 19.94 6.25266ZM17.94 13.6983C17.9225 14.3343 17.8043 14.9634 17.59 15.5622C17.4128 16.0356 17.1327 16.4635 16.77 16.8149C16.4214 17.1785 15.9936 17.4563 15.52 17.6266C14.921 17.8502 14.289 17.9721 13.65 17.9873C12.71 17.9873 12.42 18.0375 9.99 18.0375C7.56 18.0375 7.28 18.0375 6.34 18.0375C5.70202 18.0209 5.07075 17.9025 4.47 17.6867C3.99766 17.5091 3.57067 17.2284 3.22 16.865C2.85715 16.5157 2.57992 16.0869 2.41 15.6124C2.1878 15.0153 2.06615 14.3854 2.05 13.7484C2.05 12.7463 2.05 12.4958 2.05 10.0707C2.05 7.64559 2.05 7.35498 2.05 6.39296C2.06724 5.75282 2.18884 5.11982 2.41 4.51902C2.58256 4.04866 2.85953 3.62376 3.22 3.2764C3.56858 2.91279 3.99641 2.63497 4.47 2.4647C5.06899 2.24112 5.70099 2.1192 6.34 2.10394C7.28 2.00373 7.57 2.00373 10 2.00373C12.43 2.00373 12.72 2.00373 13.66 2.00373C14.3021 2.02009 14.9373 2.14196 15.54 2.36449C16.0094 2.53741 16.4334 2.81497 16.78 3.17619C17.1428 3.5255 17.4201 3.95424 17.59 4.42883C17.8348 5.03867 17.9735 5.68606 18 6.34285C18 7.34496 18.05 7.59549 18.05 10.0206C18.05 12.4457 18 12.7363 18 13.6983H17.94Z" fill="#89899C"/>
</svg>
