<svg width="32" height="32" viewBox="0 0 32 32" fill="none" xmlns="http://www.w3.org/2000/svg">
<path fill-rule="evenodd" clip-rule="evenodd" d="M16 3C8.8203 3 3 8.8203 3 16C3 23.1797 8.8203 29 16 29C23.1797 29 29 23.1797 29 16C29 8.8203 23.1797 3 16 3ZM1 16C1 7.71573 7.71573 1 16 1C24.2843 1 31 7.71573 31 16C31 24.2843 24.2843 31 16 31C7.71573 31 1 24.2843 1 16Z" fill="black"/>
<path fill-rule="evenodd" clip-rule="evenodd" d="M7 14C7 12.8954 7.89543 12 9 12H23C24.1046 12 25 12.8954 25 14V18C25 19.1046 24.1046 20 23 20H9C7.89543 20 7 19.1046 7 18V14ZM23 14H9V18H23V14Z" fill="black"/>
</svg>
