<svg width="22" height="21" viewBox="0 0 22 21" fill="none" xmlns="http://www.w3.org/2000/svg">
<path d="M21.2647 0.474188C20.98 0.236823 20.6364 0.0812568 20.2704 0.024046C19.9045 -0.0331648 19.5299 0.0101201 19.1866 0.149295L1.26566 7.3999C0.88241 7.55791 0.556176 7.82899 0.33026 8.17715C0.104343 8.52531 -0.0105725 8.93409 0.000764965 9.34923C0.0121025 9.76436 0.149157 10.1662 0.393738 10.5015C0.638319 10.8367 0.978859 11.0895 1.37016 11.2263L4.99516 12.4897L7.01566 19.1854C7.04312 19.2749 7.08297 19.36 7.13404 19.4383C7.14179 19.4504 7.15272 19.4593 7.16096 19.471C7.21996 19.5535 7.29127 19.6264 7.37239 19.6872C7.39546 19.7048 7.41755 19.7214 7.44221 19.737C7.53714 19.8001 7.64228 19.8463 7.75294 19.8734L7.76478 19.8744L7.77149 19.8773C7.83802 19.8908 7.90574 19.8977 7.97364 19.8978C7.98017 19.8978 7.98597 19.8947 7.99244 19.8946C8.0949 19.8928 8.19647 19.8751 8.29353 19.8422C8.31611 19.8345 8.33546 19.8216 8.35737 19.8123C8.42975 19.7822 8.49832 19.7437 8.56166 19.6975C8.61238 19.6546 8.66312 19.6118 8.71388 19.569L11.416 16.5793L15.4463 19.708C15.8011 19.9848 16.2379 20.1353 16.6875 20.1356C17.1587 20.135 17.6154 19.9721 17.9809 19.6742C18.3465 19.3763 18.5987 18.9615 18.6954 18.4994L21.958 2.44905C22.032 2.08781 22.0065 1.71322 21.8844 1.36536C21.7623 1.0175 21.5481 0.709458 21.2647 0.474188ZM8.37016 12.8087C8.2315 12.9471 8.13672 13.1235 8.0977 13.3157L7.78819 14.8228L7.00413 12.2243L11.0694 10.1029L8.37016 12.8087ZM16.6719 18.1236L11.9092 14.4264C11.71 14.2721 11.46 14.1987 11.2092 14.2208C10.9583 14.2429 10.725 14.3589 10.5557 14.5457L9.69029 15.503L9.99613 14.0134L17.0791 6.91545C17.2482 6.74625 17.3512 6.52198 17.3695 6.28324C17.3878 6.04451 17.3201 5.8071 17.1788 5.61403C17.0375 5.42095 16.8319 5.28498 16.5992 5.23074C16.3664 5.1765 16.122 5.20757 15.9102 5.31834L5.74491 10.6221L2.02055 9.25634L19.999 2.04877L16.6719 18.1236Z" fill="#89899C"/>
</svg>
