<svg width="32" height="32" viewBox="0 0 32 32" fill="none" xmlns="http://www.w3.org/2000/svg">
<path fill-rule="evenodd" clip-rule="evenodd" d="M13.9618 27.9882C14.2923 27.9987 14.8817 28 16 28C17.1183 28 17.7077 27.9987 18.0382 27.9882C18.089 27.7937 18.1491 27.5422 18.2064 27.276L18.2069 27.2737L18.5569 25.6685L19.5056 25.3155L19.5142 25.3124C19.716 25.2393 20.0093 25.1131 20.1399 25.0503C20.232 25.0044 20.325 24.9608 20.4047 24.9263C20.4441 24.9092 20.4903 24.89 20.5362 24.8732C20.5582 24.8652 20.5923 24.8532 20.6322 24.8418C20.6325 24.8417 20.6331 24.8416 20.6338 24.8414C20.6507 24.8364 20.7711 24.8008 20.9207 24.8008C21.0515 24.8008 21.1516 24.827 21.1835 24.8355C21.2285 24.8476 21.2641 24.8604 21.2848 24.8683C21.3266 24.8842 21.3607 24.9 21.3792 24.9089C21.4188 24.9279 21.457 24.9484 21.4862 24.9645C21.5479 24.9986 21.6226 25.0424 21.7016 25.0899C21.8621 25.1865 22.0701 25.3164 22.2892 25.4573C22.502 25.5941 22.7075 25.7256 22.8678 25.8269C22.9285 25.8653 22.9813 25.8984 23.0246 25.9252C23.1079 25.8499 23.208 25.7571 23.3223 25.6492C23.6489 25.341 24.0668 24.9329 24.4836 24.5168C24.9003 24.1007 25.31 23.6824 25.6207 23.3543C25.7418 23.2263 25.8446 23.1156 25.9252 23.0261C25.8487 22.8975 25.7141 22.6873 25.4581 22.2906L25.4573 22.2892C25.3164 22.0701 25.1865 21.8621 25.0899 21.7016C25.0424 21.6226 24.9986 21.5479 24.9645 21.4862C24.9484 21.457 24.9279 21.4188 24.9089 21.3792C24.9 21.3607 24.8842 21.3266 24.8683 21.2848C24.8604 21.2641 24.8476 21.2285 24.8355 21.1835C24.827 21.1516 24.8008 21.0515 24.8008 20.9207C24.8008 20.7712 24.8364 20.6507 24.8414 20.6338C24.8416 20.6331 24.8417 20.6325 24.8418 20.6322C24.8532 20.5923 24.8652 20.5582 24.8732 20.5362C24.89 20.4903 24.9092 20.4441 24.9263 20.4047C24.9607 20.325 25.0044 20.2321 25.0503 20.1399C25.1131 20.0093 25.2393 19.716 25.3124 19.5142L25.3156 19.5051L25.6797 18.5563L27.2013 18.2224L27.2052 18.2216C27.487 18.161 27.6969 18.1139 27.8584 18.0738C27.9137 18.06 27.9605 18.0477 28 18.0368V13.9632C27.9605 13.9523 27.9137 13.94 27.8584 13.9262C27.6969 13.8861 27.487 13.839 27.2052 13.7784L27.2013 13.7775L25.6797 13.4437L25.3156 12.4949L25.3124 12.4858C25.2393 12.2839 25.1131 11.9906 25.0503 11.86C25.0043 11.7679 24.9607 11.6749 24.9263 11.5953C24.9092 11.5559 24.89 11.5097 24.8732 11.4638C24.8652 11.4418 24.8532 11.4077 24.8418 11.3678C24.8417 11.3675 24.8416 11.3669 24.8414 11.3662C24.8364 11.3493 24.8008 11.2288 24.8008 11.0793C24.8008 10.9485 24.827 10.8484 24.8355 10.8165C24.8476 10.7715 24.8604 10.7359 24.8683 10.7152C24.8842 10.6734 24.9 10.6393 24.9089 10.6208C24.9279 10.5812 24.9484 10.543 24.9645 10.5138C24.9986 10.4521 25.0424 10.3774 25.0899 10.2984C25.1865 10.1379 25.3164 9.92989 25.4573 9.71081L25.4581 9.70944C25.7141 9.31273 25.8487 9.10252 25.9252 8.97389C25.8446 8.88436 25.7418 8.77365 25.6207 8.64568C25.31 8.31759 24.9003 7.89935 24.4836 7.48323C24.0668 7.06709 23.6489 6.65898 23.3223 6.35076C23.208 6.2429 23.1079 6.15006 23.0246 6.07479C22.9813 6.10165 22.9285 6.13472 22.8678 6.1731C22.7075 6.27437 22.502 6.40592 22.2892 6.54274C22.0701 6.68358 21.8621 6.8135 21.7016 6.91007C21.6226 6.95762 21.5479 7.00144 21.4862 7.03547C21.457 7.05159 21.4188 7.07214 21.3792 7.09111C21.3607 7.09997 21.3266 7.11585 21.2848 7.13169C21.2641 7.13955 21.2285 7.15241 21.1835 7.16445C21.1516 7.17303 21.0515 7.19922 20.9207 7.19922C20.7712 7.19922 20.6507 7.16363 20.6338 7.15864C20.6331 7.15842 20.6325 7.15826 20.6322 7.15816C20.5923 7.14684 20.5582 7.13484 20.5362 7.12679C20.4903 7.11 20.4441 7.09081 20.4047 7.07373C20.3251 7.03926 20.2321 6.99566 20.14 6.94974C20.0094 6.88694 19.7161 6.76067 19.5142 6.68764L18.5569 6.33149L18.2069 4.72629L18.2064 4.72396C18.1491 4.45782 18.089 4.20632 18.0382 4.0118C17.7077 4.00131 17.1183 4 16 4C14.8817 4 14.2923 4.00131 13.9618 4.0118C13.911 4.20632 13.8509 4.45782 13.7936 4.72396L13.4431 6.33149L12.4944 6.68449L12.4858 6.68764C12.284 6.76066 11.9907 6.88691 11.8601 6.94971C11.7679 6.99564 11.675 7.03926 11.5953 7.07373C11.5559 7.09081 11.5097 7.11 11.4638 7.12679C11.4418 7.13484 11.4077 7.14684 11.3678 7.15816C11.3675 7.15826 11.3669 7.15842 11.3662 7.15864C11.3493 7.16363 11.2288 7.19922 11.0793 7.19922C10.9485 7.19922 10.8484 7.17303 10.8165 7.16445C10.7715 7.15241 10.7359 7.13955 10.7152 7.13169C10.6734 7.11585 10.6393 7.09997 10.6208 7.09111C10.5812 7.07214 10.543 7.05159 10.5138 7.03547C10.4521 7.00144 10.3774 6.95762 10.2984 6.91007C10.1379 6.8135 9.92989 6.68358 9.7108 6.54274L9.70944 6.54186C9.31273 6.28592 9.10252 6.15128 8.97389 6.07477C8.88436 6.15545 8.77365 6.25816 8.64568 6.37932C8.31759 6.68996 7.89935 7.09969 7.48323 7.51644C7.06709 7.9332 6.65897 8.35108 6.35076 8.67767C6.24289 8.79196 6.15006 8.89213 6.07479 8.97538C6.10165 9.01871 6.13472 9.07145 6.1731 9.13219C6.27437 9.29249 6.40592 9.49797 6.54274 9.71081C6.68358 9.92989 6.8135 10.1379 6.91007 10.2984C6.95762 10.3774 7.00144 10.4521 7.03547 10.5138C7.05159 10.543 7.07214 10.5812 7.09111 10.6208C7.09997 10.6393 7.11585 10.6734 7.13169 10.7152C7.13955 10.7359 7.15241 10.7715 7.16445 10.8165C7.17303 10.8484 7.19922 10.9485 7.19922 11.0793C7.19922 11.2289 7.16362 11.3493 7.15864 11.3662C7.15842 11.3669 7.15826 11.3675 7.15816 11.3678C7.14683 11.4077 7.13484 11.4418 7.12679 11.4638C7.11 11.5097 7.09081 11.5559 7.07373 11.5953C7.03925 11.675 6.99563 11.768 6.9497 11.8601C6.88689 11.9907 6.76066 12.284 6.68764 12.4858L6.68435 12.4949L6.32028 13.4437L4.79867 13.7775L4.7948 13.7784C4.51305 13.839 4.3031 13.8861 4.14159 13.9262C4.08625 13.94 4.0395 13.9523 4 13.9632V18.0368C4.0395 18.0477 4.08625 18.06 4.14159 18.0738C4.3031 18.1139 4.51305 18.161 4.7948 18.2216L6.32028 18.5563L6.68435 19.5051L6.68764 19.5142C6.76065 19.716 6.88686 20.0092 6.94968 20.1399C6.99562 20.232 7.03924 20.325 7.07373 20.4047C7.09081 20.4441 7.11 20.4903 7.12679 20.5362C7.13484 20.5582 7.14683 20.5923 7.15816 20.6322C7.15826 20.6325 7.15842 20.6331 7.15864 20.6338C7.16361 20.6507 7.19922 20.7711 7.19922 20.9207C7.19922 21.0515 7.17303 21.1516 7.16445 21.1835C7.15241 21.2285 7.13955 21.2641 7.13169 21.2848C7.11585 21.3266 7.09997 21.3607 7.09111 21.3792C7.07214 21.4188 7.05159 21.457 7.03547 21.4862C7.00144 21.5479 6.95762 21.6226 6.91007 21.7016C6.8135 21.8621 6.68358 22.0701 6.54274 22.2892L6.54186 22.2906C6.28592 22.6873 6.15128 22.8975 6.07477 23.0261C6.15544 23.1156 6.25816 23.2263 6.37932 23.3543C6.68996 23.6824 7.09969 24.1007 7.51644 24.5168C7.9332 24.9329 8.35108 25.341 8.67767 25.6492C8.79196 25.7571 8.89212 25.8499 8.97538 25.9252C9.01871 25.8984 9.07145 25.8653 9.13219 25.8269C9.29248 25.7256 9.49796 25.5941 9.7108 25.4573C9.92989 25.3164 10.1379 25.1865 10.2984 25.0899C10.3774 25.0424 10.4521 24.9986 10.5138 24.9645C10.543 24.9484 10.5812 24.9279 10.6208 24.9089C10.6393 24.9 10.6734 24.8842 10.7152 24.8683C10.7359 24.8604 10.7715 24.8476 10.8165 24.8355C10.8484 24.827 10.9485 24.8008 11.0793 24.8008C11.2289 24.8008 11.3493 24.8364 11.3662 24.8414C11.3669 24.8416 11.3675 24.8417 11.3678 24.8418C11.4077 24.8532 11.4418 24.8652 11.4638 24.8732C11.5097 24.89 11.5559 24.9092 11.5953 24.9263C11.675 24.9608 11.768 25.0044 11.8601 25.0503C11.9908 25.1131 12.284 25.2394 12.4858 25.3124L13.4431 25.6685L13.7931 27.2737L13.7936 27.276C13.8509 27.5422 13.911 27.7937 13.9618 27.9882ZM9.19019 26.1093C9.18992 26.1089 9.18426 26.1044 9.17401 26.0974C9.18532 26.1062 9.19045 26.1097 9.19019 26.1093ZM5.92133 22.8485C5.91541 22.84 5.91175 22.8353 5.91141 22.8351C5.91106 22.8349 5.91403 22.8391 5.92133 22.8485ZM5.8907 9.19019C5.89114 9.18992 5.89556 9.18426 5.90261 9.17401C5.89378 9.18532 5.89026 9.19045 5.8907 9.19019ZM9.1515 5.92133C9.16006 5.91537 9.16474 5.91171 9.1649 5.9114C9.16506 5.9111 9.1608 5.91407 9.1515 5.92133ZM22.8098 5.8907C22.81 5.8911 22.8157 5.89553 22.826 5.90261C22.8147 5.89382 22.8096 5.89029 22.8098 5.8907ZM26.0787 9.15149C26.0845 9.15992 26.0882 9.16459 26.0886 9.16489C26.089 9.1652 26.0861 9.16096 26.0787 9.15149ZM26.0886 22.8351C26.0883 22.8353 26.0846 22.84 26.0787 22.8485C26.086 22.8392 26.0889 22.8349 26.0886 22.8351ZM22.826 26.0974C22.8157 26.1044 22.8101 26.1089 22.8098 26.1093C22.8096 26.1097 22.8147 26.1062 22.826 26.0974ZM13.8258 29.9846C14.1933 29.9989 14.8361 30 16 30C17.1639 30 17.8067 29.9989 18.1742 29.9846C18.3526 29.9777 18.5232 29.9662 18.6766 29.9354C18.8714 29.8962 19.0133 29.8316 19.1313 29.7611C19.3539 29.6326 19.5651 29.4316 19.6913 29.2493L19.7011 29.2352L19.7103 29.2208C19.7764 29.1181 19.8146 29.0165 19.8251 28.9886L19.8261 28.9858C19.8438 28.9388 19.86 28.8902 19.8738 28.8462C19.9019 28.7568 19.9322 28.649 19.9628 28.5335C20.0244 28.301 20.0951 28.0058 20.1612 27.699C20.1613 27.6984 20.1614 27.6979 20.1615 27.6974L20.2782 27.1621C20.4707 27.0893 20.6912 26.9965 20.8609 26.9202C20.9655 26.9852 21.0836 27.0598 21.2077 27.1396C21.4214 27.277 21.6323 27.4121 21.7996 27.5177C21.9213 27.5946 22.0758 27.6922 22.1735 27.7451C22.6117 27.9841 23.2169 28.0712 23.7304 27.8684L23.7405 27.8645L23.7505 27.8603C23.9013 27.7969 24.0253 27.6988 24.0559 27.6746C24.0576 27.6732 24.059 27.6721 24.0601 27.6712C24.1179 27.626 24.1806 27.5729 24.2424 27.5188C24.3677 27.4092 24.5236 27.2656 24.695 27.1038C25.0397 26.7785 25.4718 26.3563 25.8967 25.9321C26.3217 25.5077 26.7454 25.0754 27.073 24.7294C27.236 24.5572 27.3808 24.4005 27.4918 24.2742C27.5467 24.2118 27.6001 24.149 27.6457 24.0913C27.6466 24.0901 27.6478 24.0887 27.649 24.0871C27.675 24.0544 27.762 23.9448 27.8242 23.8116C27.8832 23.6851 27.9467 23.5217 27.9743 23.3242C28.0022 23.1251 27.9859 22.9481 27.9565 22.7969C27.9197 22.5943 27.873 22.415 27.7245 22.1438C27.6166 21.9469 27.4352 21.6658 27.1469 21.219L27.1396 21.2077C27.0598 21.0836 26.9852 20.9655 26.9202 20.8609C26.9965 20.6913 27.0892 20.471 27.1619 20.2787L27.6261 20.1768C27.6267 20.1767 27.6273 20.1765 27.628 20.1764C28.17 20.0597 28.5771 19.9673 28.8665 19.858C29.0278 19.797 29.1986 19.7149 29.3598 19.5891C29.5261 19.4593 29.6356 19.3194 29.7131 19.2037C29.7138 19.2026 29.7145 19.2015 29.7153 19.2004L30 18.7795V13.2205L29.7153 12.7996C29.7146 12.7986 29.7139 12.7975 29.7132 12.7965C29.6357 12.6808 29.5262 12.5407 29.3598 12.4109C29.1986 12.2851 29.0278 12.203 28.8665 12.142C28.5771 12.0328 28.1701 11.9403 27.6281 11.8236C27.6274 11.8235 27.6267 11.8233 27.6261 11.8232L27.1619 11.7213C27.0892 11.529 26.9965 11.3087 26.9202 11.1391C26.9852 11.0346 27.0597 10.9166 27.1394 10.7926C27.1394 10.7927 27.1395 10.7925 27.1394 10.7926L27.147 10.7809C27.4352 10.3342 27.6166 10.0531 27.7245 9.85616C27.873 9.58503 27.9197 9.40574 27.9565 9.20313C27.9859 9.05186 28.0022 8.8749 27.9743 8.67581C27.9467 8.47832 27.8832 8.31493 27.8242 8.18844C27.762 8.05523 27.675 7.9456 27.649 7.91294L27.6457 7.9087C27.6001 7.85096 27.5467 7.78821 27.4918 7.72579C27.3808 7.5995 27.236 7.44279 27.073 7.27063C26.7454 6.9246 26.3217 6.49225 25.8967 6.06795C25.4718 5.64365 25.0397 5.22149 24.695 4.89622C24.5236 4.73443 24.3677 4.59082 24.2424 4.4812C24.1806 4.42712 24.1179 4.37403 24.0601 4.32879C24.059 4.32792 24.0576 4.32679 24.0559 4.32543C24.0253 4.30119 23.9013 4.20308 23.7505 4.13974L23.7405 4.13554L23.7304 4.13157C23.2169 3.92883 22.6118 4.01587 22.1735 4.25492C22.0758 4.30781 21.9213 4.40538 21.7996 4.48228C21.6323 4.58794 21.4214 4.72299 21.2077 4.86038C21.0836 4.94017 20.9655 5.01478 20.8609 5.07977C20.6912 5.00347 20.4707 4.91066 20.2782 4.83792L20.1615 4.3026C20.1614 4.30209 20.1613 4.30158 20.1612 4.30107C20.0951 3.99427 20.0244 3.69903 19.9628 3.46647C19.9322 3.35099 19.9019 3.24315 19.8738 3.15377C19.86 3.10978 19.8438 3.06116 19.8261 3.01416L19.8251 3.01142C19.8146 2.98351 19.7764 2.88192 19.7103 2.77917L19.7011 2.76478L19.6913 2.75071C19.5651 2.56844 19.3539 2.36741 19.1313 2.23891C19.0133 2.16841 18.8714 2.10382 18.6766 2.06462C18.5232 2.03378 18.3526 2.02229 18.1742 2.01535C17.8067 2.00106 17.1639 2 16 2C14.8361 2 14.1933 2.00106 13.8258 2.01535C13.6474 2.02229 13.4768 2.03378 13.3234 2.06462C13.1286 2.10381 12.9867 2.1684 12.8687 2.23888C12.6461 2.36739 12.4349 2.56842 12.3087 2.75071L12.2989 2.76478L12.2897 2.77917C12.2236 2.8819 12.1854 2.98347 12.1749 3.01139L12.1739 3.01416C12.1562 3.06116 12.14 3.10978 12.1262 3.15377C12.0981 3.24315 12.0678 3.35099 12.0372 3.46647C11.9756 3.69913 11.9049 3.99452 11.8387 4.30146C11.8386 4.30184 11.8385 4.30222 11.8385 4.3026L11.7218 4.83792C11.5293 4.91066 11.3088 5.00347 11.1391 5.07977C11.0345 5.01479 10.9165 4.94019 10.7924 4.86041C10.7923 4.8604 10.7924 4.86041 10.7924 4.86041L10.781 4.85307C10.3342 4.56485 10.0531 4.38344 9.85616 4.27554C9.58503 4.12696 9.40574 4.08035 9.20313 4.04351C9.05186 4.01409 8.8749 3.9978 8.67581 4.02567C8.47832 4.05332 8.31493 4.11682 8.18844 4.17585C8.05522 4.23805 7.94559 4.32505 7.91293 4.35096C7.91133 4.35223 7.90992 4.35335 7.9087 4.35432C7.85096 4.39989 7.78821 4.45333 7.72579 4.50818C7.5995 4.61916 7.44279 4.764 7.27063 4.927C6.9246 5.25462 6.49225 5.67834 6.06795 6.10329C5.64365 6.52822 5.22149 6.9603 4.89622 7.30497C4.73443 7.4764 4.59081 7.63233 4.4812 7.75762C4.42712 7.81944 4.37403 7.88207 4.32879 7.93987C4.32791 7.94098 4.32679 7.9424 4.32543 7.94412C4.3012 7.97473 4.20308 8.09867 4.13974 8.24949L4.13554 8.25948L4.13156 8.26955C3.92883 8.78315 4.01587 9.38825 4.25492 9.82651C4.30781 9.92419 4.40538 10.0787 4.48227 10.2004C4.58794 10.3677 4.72299 10.5786 4.86038 10.7923C4.94017 10.9164 5.01478 11.0345 5.07977 11.1391C5.00352 11.3087 4.91079 11.529 4.83807 11.7213L4.37395 11.8232C4.37327 11.8233 4.37258 11.8235 4.3719 11.8236C3.82995 11.9403 3.42287 12.0328 3.13352 12.142C2.97217 12.203 2.80144 12.2851 2.64018 12.4109C2.47389 12.5407 2.36434 12.6807 2.2869 12.7964C2.28618 12.7974 2.28546 12.7985 2.28475 12.7996L2 13.2205V18.7795L2.2869 19.2036C2.36434 19.3193 2.47388 19.4593 2.64018 19.5891C2.80144 19.7149 2.97217 19.797 3.13352 19.858C3.4229 19.9673 3.83004 20.0597 4.37208 20.1764C4.37271 20.1766 4.37333 20.1767 4.37395 20.1768L4.83807 20.2787C4.91079 20.471 5.00352 20.6913 5.07977 20.8609C5.01488 20.9653 4.9404 21.0832 4.86075 21.2071C4.86063 21.2073 4.86087 21.2069 4.86075 21.2071L4.85304 21.2191C4.56484 21.6658 4.38344 21.9469 4.27553 22.1438C4.12695 22.415 4.08034 22.5943 4.0435 22.7969C4.01409 22.9482 3.9978 23.1251 4.02567 23.3242C4.05332 23.5217 4.11682 23.6851 4.17585 23.8116C4.23805 23.9448 4.32505 24.0544 4.35096 24.0871C4.35223 24.0887 4.35335 24.0901 4.35432 24.0913C4.39989 24.149 4.45333 24.2118 4.50818 24.2742C4.61916 24.4005 4.764 24.5572 4.927 24.7294C5.25462 25.0754 5.67834 25.5077 6.10329 25.9321C6.52822 26.3563 6.9603 26.7785 7.30497 27.1038C7.4764 27.2656 7.63233 27.4092 7.75762 27.5188C7.81944 27.5729 7.88207 27.626 7.93986 27.6712C7.94098 27.6721 7.9424 27.6732 7.94412 27.6746C7.97473 27.6988 8.09867 27.7969 8.24949 27.8603L8.25947 27.8645L8.26955 27.8684C8.78315 28.0712 9.38825 27.9841 9.82651 27.7451C9.92419 27.6922 10.0787 27.5946 10.2004 27.5177C10.3677 27.4121 10.5786 27.277 10.7923 27.1396C10.9164 27.0598 11.0345 26.9852 11.1391 26.9202C11.3088 26.9965 11.5293 27.0893 11.7218 27.1621L11.8385 27.6974C11.8385 27.6978 11.8386 27.6981 11.8387 27.6985C11.9049 28.0055 11.9756 28.3009 12.0372 28.5335C12.0678 28.649 12.0981 28.7569 12.1262 28.8462C12.14 28.8902 12.1562 28.9388 12.1739 28.9858C12.1742 28.9867 12.1746 28.9876 12.1749 28.9886C12.1854 29.0165 12.2236 29.1181 12.2897 29.2208L12.2989 29.2352L12.3087 29.2493C12.4349 29.4316 12.6461 29.6326 12.8688 29.7611C12.9868 29.8316 13.1286 29.8962 13.3234 29.9354C13.4768 29.9662 13.6474 29.9777 13.8258 29.9846Z" fill="white"/>
<path fill-rule="evenodd" clip-rule="evenodd" d="M16 20C18.2091 20 20 18.2091 20 16C20 13.7909 18.2091 12 16 12C13.7909 12 12 13.7909 12 16C12 18.2091 13.7909 20 16 20ZM16 22C19.3137 22 22 19.3137 22 16C22 12.6863 19.3137 10 16 10C12.6863 10 10 12.6863 10 16C10 19.3137 12.6863 22 16 22Z" fill="white"/>
</svg>
