<svg width="20" height="17" viewBox="0 0 20 17" fill="none" xmlns="http://www.w3.org/2000/svg">
<path d="M13.4 7.21722L8.5 4.05056C8.34798 3.96261 8.17554 3.91631 8 3.91631C7.82446 3.91631 7.65202 3.96261 7.5 4.05056C7.35174 4.13626 7.22791 4.25867 7.14036 4.40605C7.05282 4.55344 7.00449 4.72087 7 4.89233V11.2257C7.0013 11.4042 7.05019 11.5792 7.14161 11.7325C7.23303 11.8858 7.36367 12.0118 7.52 12.0975C7.66543 12.1833 7.83123 12.2283 8 12.2278C8.17714 12.2155 8.34869 12.1605 8.5 12.0674L13.4 8.90077C13.5403 8.80992 13.6557 8.68528 13.7356 8.53824C13.8155 8.39119 13.8574 8.22643 13.8574 8.059C13.8574 7.89156 13.8155 7.7268 13.7356 7.57975C13.6557 7.43271 13.5403 7.30807 13.4 7.21722ZM9 9.38178V6.73621L11 8.059L9 9.38178ZM17.38 0.553207L15.83 0.352785C11.991 -0.118246 8.109 -0.118246 4.27 0.352785L2.72 0.553207C1.97471 0.634486 1.2854 0.987989 0.783675 1.54622C0.281954 2.10445 0.0029736 2.82831 0 3.57957V12.5384C0.00635666 13.2785 0.280506 13.9912 0.771546 14.5441C1.26259 15.097 1.93715 15.4526 2.67 15.5447L4.22 15.7351C6.13776 15.9687 8.06815 16.0825 10 16.0759C11.9323 16.0758 13.8627 15.9553 15.78 15.7151L17.33 15.5247C18.0628 15.4325 18.7374 15.077 19.2285 14.5241C19.7195 13.9712 19.9936 13.2585 20 12.5184V3.57957C19.9985 2.83598 19.7265 2.11845 19.235 1.56137C18.7435 1.00428 18.0662 0.645849 17.33 0.553207H17.38ZM18.05 12.5785C18.0508 12.831 17.9565 13.0744 17.7859 13.2602C17.6154 13.446 17.3811 13.5604 17.13 13.5806L15.58 13.771C11.9077 14.232 8.19232 14.232 4.52 13.771L2.97 13.5806C2.71889 13.5604 2.48463 13.446 2.31406 13.2602C2.1435 13.0744 2.04919 12.831 2.05 12.5785V3.57957C2.06192 3.331 2.16055 3.09451 2.32869 2.91136C2.49683 2.72822 2.7238 2.61005 2.97 2.57747L4.47 2.34698C8.14273 1.89267 11.8573 1.89267 15.53 2.34698L17.08 2.53738C17.3262 2.56996 17.5532 2.68813 17.7213 2.87128C17.8894 3.05442 17.9881 3.29091 18 3.53949L18.05 12.5785Z" fill="#89899C"/>
</svg>
