<?xml version="1.0" encoding="utf-8"?>
<!-- Generator: Adobe Illustrator 27.1.1, SVG Export Plug-In . SVG Version: 6.00 Build 0)  -->
<svg version="1.1" id="Layer_1" xmlns="http://www.w3.org/2000/svg" xmlns:xlink="http://www.w3.org/1999/xlink" x="0px" y="0px"
	 viewBox="0 0 548.8 210.8" style="enable-background:new 0 0 548.8 210.8;" xml:space="preserve">
<style type="text/css">
	.st0{fill:#F7A600;}
	.st1{fill:#14192C;}
	.st2{fill:none;}
</style>
<path class="st0" d="M383.9,151.9V19.7h26.6v132.2H383.9z"/>
<path class="st1" d="M74.1,191.2h-57V58.9h54.7c26.6,0,42.1,14.5,42.1,37.2c0,14.7-9.9,24.1-16.8,27.3c8.2,3.7,18.8,12,18.8,29.8
	C115.8,177.8,98.3,191.2,74.1,191.2z M69.7,82h-26v30.5h26c11.3,0,17.6-6.2,17.6-15.3S81,82,69.7,82z M71.4,135.6H43.7v32.5h27.7
	c12,0,17.8-7.4,17.8-16.4S83.4,135.6,71.4,135.6z"/>
<path class="st1" d="M196.8,136.9v54.2h-26.4v-54.2l-40.9-78h28.8l25.4,53.3l25.1-53.3h28.8L196.8,136.9z"/>
<path class="st1" d="M313.1,191.2h-57V58.9h54.7c26.6,0,42.1,14.5,42.1,37.2c0,14.7-9.9,24.1-16.8,27.3c8.2,3.7,18.8,12,18.8,29.8
	C354.8,177.8,337.4,191.2,313.1,191.2z M308.7,82h-26v30.5h26c11.3,0,17.6-6.2,17.6-15.3S320,82,308.7,82z M310.4,135.6h-27.7v32.5
	h27.7c12,0,17.8-7.4,17.8-16.4S322.5,135.6,310.4,135.6L310.4,135.6z"/>
<path class="st1" d="M496.1,82v109.2h-26.6V82H434v-23h97.7v23H496.1z"/>
<rect class="st2" width="548.8" height="210.8"/>
</svg>
