<svg width="32" height="32" viewBox="0 0 32 32" fill="none" xmlns="http://www.w3.org/2000/svg">
<path fill-rule="evenodd" clip-rule="evenodd" d="M17.1776 16.2367L25.7071 7.70711C26.0976 7.31658 26.0976 6.68342 25.7071 6.29289C25.3166 5.90237 24.6834 5.90237 24.2929 6.29289L15.7229 14.8628L7.68663 7.27299C7.28511 6.89378 6.6522 6.91186 6.27299 7.31338C5.89378 7.7149 5.91186 8.3478 6.31338 8.72702L14.3082 16.2776L6.29289 24.2929C5.90237 24.6834 5.90237 25.3166 6.29289 25.7071C6.68342 26.0976 7.31658 26.0976 7.70711 25.7071L15.7628 17.6514L24.3134 25.727C24.7149 26.1062 25.3478 26.0881 25.727 25.6866C26.1062 25.2851 26.0881 24.6522 25.6866 24.273L17.1776 16.2367Z" fill="black"/>
</svg>
