<svg width="32" height="32" viewBox="0 0 32 32" fill="none" xmlns="http://www.w3.org/2000/svg">
<g clip-path="url(#clip0_32_536)">
<path fill-rule="evenodd" clip-rule="evenodd" d="M29.1916 24.3604L27.3486 22.7819C26.9122 22.4081 25.9043 21.8458 24.7454 21.3412C24.3205 21.1563 23.9034 20.9913 23.5165 20.8535L15.4425 25.5703C15.3751 25.9654 15.3167 26.3987 15.2715 26.8491C15.1472 28.0882 15.1437 29.2409 15.2496 29.8207L15.6848 32.2052L13.6948 30.8212C12.3554 29.8896 10.3307 28.3203 8.58842 26.6204C7.71772 25.771 6.8968 24.8689 6.2653 23.9809C5.64913 23.1144 5.13982 22.1609 5.02839 21.2208C4.9207 20.3123 5.11504 19.5195 5.54612 18.873C5.96575 18.2438 6.56367 17.8209 7.16304 17.5437C7.28563 17.487 7.41071 17.4353 7.53743 17.3883C6.12081 15.1347 4.85728 12.5471 4.5033 10.0579C4.32125 8.77771 4.35673 7.3721 4.46284 6.12423C4.79417 2.22769 8.76641 -0.140706 12.337 1.55037C13.4601 2.08229 14.6848 2.75598 15.6933 3.55867C17.6575 5.12206 19.2366 7.52583 20.4461 9.86998C20.5566 9.77856 20.6707 9.69133 20.7881 9.60926C21.3342 9.22728 22.0052 8.91861 22.7627 8.86681C23.5421 8.8135 24.331 9.03877 25.0648 9.59112C25.82 10.1597 26.3863 11.0812 26.8236 12.0505C27.2721 13.0445 27.6379 14.2105 27.9337 15.3936C28.5255 17.7611 28.8638 20.3093 28.9959 21.9418L29.1916 24.3604ZM19.5839 12.6982C19.4107 12.3097 19.2288 11.9176 19.0382 11.5256C17.8364 9.05381 16.2919 6.59125 14.4478 5.12352C13.6105 4.45713 12.5406 3.85976 11.481 3.3579C9.20046 2.27783 6.6715 3.75524 6.45565 6.29368C6.35535 7.47318 6.33166 8.70944 6.48338 9.77632C6.81794 12.129 8.15615 14.7172 9.67308 17.0083C9.91262 17.3701 10.1566 17.7245 10.4018 18.0694C12.6255 21.1969 14.9485 23.5427 14.9485 23.5427L21.9975 19.4247C21.9975 19.4247 21.1504 16.2127 19.5839 12.6982ZM23.9212 18.8769L23.9184 18.8662C23.9107 18.8378 23.8997 18.7976 23.8855 18.746C23.8569 18.643 23.8152 18.495 23.7606 18.3077C23.6513 17.9332 23.49 17.4006 23.2784 16.7559C22.8566 15.4701 22.2295 13.7211 21.4106 11.884C21.3917 11.8416 21.3727 11.7991 21.3536 11.7565C21.5282 11.5709 21.7236 11.3956 21.9344 11.2481C22.2763 11.009 22.6038 10.8823 22.8991 10.8622C23.1724 10.8435 23.4906 10.9095 23.862 11.189C24.2119 11.4524 24.608 12.0028 25.0006 12.873C25.3821 13.7186 25.7137 14.7596 25.9934 15.8786C26.3474 17.2949 26.6073 18.7911 26.7822 20.0921C26.3805 19.8862 25.9588 19.6882 25.5437 19.5075C25.0165 19.278 24.4587 19.0584 23.9212 18.8769ZM13.5227 24.9452L13.5181 24.9406L13.4979 24.92C13.4809 24.9027 13.4569 24.878 13.4262 24.8464C13.3649 24.7831 13.2772 24.6917 13.1665 24.5746C12.9453 24.3404 12.6318 24.0025 12.2546 23.5792C11.5016 22.7342 10.4866 21.5401 9.44031 20.1437C9.19702 19.819 8.94829 19.4785 8.69805 19.1246C8.46096 19.1799 8.22369 19.2567 8.00247 19.359C7.63464 19.5291 7.37018 19.7426 7.21008 19.9827C7.06144 20.2055 6.95873 20.515 7.01449 20.9854C7.06651 21.4243 7.34299 22.0453 7.89518 22.8218C8.43204 23.5767 9.16205 24.3859 9.98509 25.1889C11.0175 26.1961 12.1636 27.1621 13.1886 27.9606C13.2059 27.5279 13.238 27.0829 13.2815 26.6494C13.3381 26.0852 13.4182 25.4981 13.5227 24.9452Z" fill="black"/>
<path fill-rule="evenodd" clip-rule="evenodd" d="M12.9992 10.0002C11.8946 10.0002 10.9992 10.8956 10.9992 12.0002C10.9992 13.1048 11.8946 14.0002 12.9992 14.0002C14.1037 14.0002 14.9992 13.1048 14.9992 12.0002C14.9992 10.8956 14.1037 10.0002 12.9992 10.0002ZM8.99916 12.0002C8.99916 9.79108 10.79 8.00022 12.9992 8.00022C15.2083 8.00022 16.9992 9.79108 16.9992 12.0002C16.9992 14.2094 15.2083 16.0002 12.9992 16.0002C10.79 16.0002 8.99916 14.2094 8.99916 12.0002Z" fill="black"/>
</g>
<defs>
<clipPath id="clip0_32_536">
<rect width="32" height="32" fill="white"/>
</clipPath>
</defs>
</svg>
