<svg width="40" height="40" viewBox="0 0 40 40" fill="none" xmlns="http://www.w3.org/2000/svg">
<g clip-path="url(#clip0_1908_23298)">
<path d="M20 40C31.0457 40 40 31.0457 40 20C40 8.95431 31.0457 0 20 0C8.95431 0 0 8.95431 0 20C0 31.0457 8.95431 40 20 40Z" fill="url(#paint0_linear_1908_23298)"/>
<path fill-rule="evenodd" clip-rule="evenodd" d="M9.05173 19.7887C14.8821 17.2485 18.77 15.5738 20.7153 14.7647C26.2695 12.4545 27.4236 12.0532 28.1759 12.0399C28.3413 12.037 28.7112 12.078 28.9509 12.2725C29.1532 12.4366 29.2089 12.6584 29.2355 12.8141C29.2621 12.9697 29.2953 13.3243 29.2689 13.6014C28.968 16.7639 27.6656 24.4384 27.003 27.9804C26.7227 29.4791 26.1706 29.9817 25.6362 30.0308C24.4748 30.1377 23.5928 29.2633 22.4679 28.5259C20.7077 27.372 19.7132 26.6537 18.0046 25.5278C16.03 24.2265 17.31 23.5113 18.4354 22.3425C18.7299 22.0366 23.8472 17.382 23.9462 16.9598C23.9586 16.907 23.9701 16.7101 23.8532 16.6062C23.7362 16.5023 23.5636 16.5378 23.4391 16.5661C23.2625 16.6061 20.4505 18.4648 15.003 22.142C14.2048 22.6901 13.4818 22.9572 12.8341 22.9432C12.12 22.9278 10.7463 22.5394 9.72514 22.2075C8.47264 21.8003 7.47717 21.5851 7.56386 20.8936C7.60901 20.5335 8.10496 20.1652 9.05173 19.7887Z" fill="white"/>
</g>
<defs>
<linearGradient id="paint0_linear_1908_23298" x1="20" y1="0" x2="20" y2="39.7033" gradientUnits="userSpaceOnUse">
<stop stop-color="#2AABEE"/>
<stop offset="1" stop-color="#229ED9"/>
</linearGradient>
<clipPath id="clip0_1908_23298">
<rect width="40" height="40" fill="white"/>
</clipPath>
</defs>
</svg>
