<svg width="32" height="32" viewBox="0 0 32 32" fill="none" xmlns="http://www.w3.org/2000/svg">
<path fill-rule="evenodd" clip-rule="evenodd" d="M4.04107 15H7.04302C7.358 11.3331 9.3491 8.2239 11.2436 6.03335C11.7537 5.44354 12.2633 4.91283 12.742 4.44756C8.00667 5.78031 4.45801 9.94616 4.04107 15ZM15 5.08158C14.3416 5.66234 13.5482 6.42611 12.7564 7.34165C11.0129 9.35756 9.36244 12.0097 9.05211 15H15V5.08158ZM15 17H9.05211C9.36244 19.9903 11.0129 22.6424 12.7564 24.6583C13.5482 25.5739 14.3416 26.3377 15 26.9184V17ZM12.742 27.5524C12.2633 27.0872 11.7537 26.5565 11.2436 25.9667C9.3491 23.7761 7.358 20.6669 7.04302 17H4.04107C4.45801 22.0538 8.00667 26.2197 12.742 27.5524ZM18.7747 27.6776C23.7503 26.4998 27.5279 22.2244 27.9589 17H24.938C24.7707 18.3771 24.2792 19.7403 23.6444 21.0097C22.8527 22.5933 21.8077 24.0911 20.7809 25.3747C20.0846 26.2451 19.3894 27.0257 18.7747 27.6776ZM22.9191 17H17V26.6403C17.6568 25.9605 18.4388 25.1007 19.2191 24.1253C20.1923 22.9089 21.1473 21.5317 21.8556 20.1153C22.387 19.0525 22.7627 18.0006 22.9191 17ZM22.9402 15H17V5.17332C17.658 5.78755 18.4474 6.58375 19.2351 7.51914C20.9804 9.59173 22.612 12.2232 22.9402 15ZM24.9517 15H27.9589C27.5367 9.88185 23.9025 5.67444 19.0767 4.39806C19.6089 4.92858 20.1865 5.54404 20.7649 6.23086C22.6329 8.44906 24.6196 11.5419 24.9517 15ZM2 16C2 8.26801 8.26801 2 16 2C23.732 2 30 8.26801 30 16C30 23.732 23.732 30 16 30C8.26801 30 2 23.732 2 16Z" fill="black"/>
</svg>
