<svg width="32" height="32" viewBox="0 0 32 32" fill="none" xmlns="http://www.w3.org/2000/svg">
<path d="M14 20.167C15.1046 20.167 16 19.2716 16 18.167C16 17.0625 15.1046 16.167 14 16.167C12.8954 16.167 12 17.0625 12 18.167C12 19.2716 12.8954 20.167 14 20.167Z" fill="black"/>
<path fill-rule="evenodd" clip-rule="evenodd" d="M7.53385 7.61484L7.35242 8.16704H7C4.79086 8.16704 3 9.9579 3 12.167V24.167C3 26.3762 4.79086 28.167 7 28.167H25C27.2091 28.167 29 26.3762 29 24.167V12.167C29 10.229 27.6218 8.61296 25.792 8.24544L25.802 8.21372L13.7942 4.40914C11.1815 3.58132 8.38937 5.01109 7.53385 7.61484ZM13.1901 6.31572L19.0332 8.16704H9.45861C9.99912 6.65064 11.6468 5.82673 13.1901 6.31572ZM7 10.167H25C26.1046 10.167 27 11.0625 27 12.167V24.167C27 25.2716 26.1046 26.167 25 26.167H7C5.89543 26.167 5 25.2716 5 24.167V23.167H14C16.7614 23.167 19 20.9285 19 18.167C19 15.4056 16.7614 13.167 14 13.167H5V12.167C5 11.0625 5.89543 10.167 7 10.167ZM5 15.167V21.167H14C15.6569 21.167 17 19.8239 17 18.167C17 16.5102 15.6569 15.167 14 15.167H5Z" fill="black"/>
</svg>
