<svg width="138" height="46" viewBox="0 0 138 46" fill="none" xmlns="http://www.w3.org/2000/svg">
<g clip-path="url(#clip0_877_3302)">
<path d="M25.69 35.2666H15.1844L18.4599 20.0442H21.2739L18.6858 32.4449H23.3502L24.6591 26.1551L33.3231 26.1496L33.5177 25.142L37.418 27.6649L32.3618 29.9631L32.5973 28.9563L27.0021 28.9768L25.69 35.2666Z" fill="#89E55A"/>
<path d="M35.8175 22.843H26.6633C26.8694 21.9027 27.075 20.9621 27.2801 20.0213H33.4697L34.2042 16.4365H12.6107C12.5941 16.7718 12.5776 17.1069 12.561 17.4417L7.93025 14.9953L12.6091 12.6206V13.614H37.7023L35.8175 22.843Z" fill="#FF0000"/>
<path d="M23.3686 3.13278C27.39 3.12561 31.321 4.3066 34.6528 6.5229C37.899 8.68044 40.4404 11.7177 41.9695 15.2671C43.2788 18.3111 43.7945 21.6289 43.4695 24.919C43.1445 28.2091 41.9892 31.3671 40.1087 34.1059C38.6555 36.2226 36.8034 38.0454 34.6528 39.4757C32.0358 41.2138 29.0411 42.3236 25.9092 42.7161C22.7774 43.1086 19.5956 42.7727 16.6196 41.7356C13.6435 40.6984 10.956 38.9888 8.77296 36.744C6.5899 34.4993 4.97209 31.7819 4.04946 28.8103C3.12684 25.8386 2.92511 22.6953 3.46047 19.633C3.99583 16.5707 5.25337 13.6746 7.13209 11.1773C9.01081 8.68003 11.4584 6.65117 14.2782 5.25366C17.098 3.85615 20.2115 3.12893 23.3686 3.13042M23.3686 -0.00268555C10.4623 -0.000320346 0 10.297 0 22.9997C0 35.7024 10.4623 45.9997 23.3686 45.9997C36.2749 45.9997 46.7372 35.7024 46.7372 22.9997C46.7372 10.297 36.2749 -0.000320346 23.3686 -0.000320346V-0.00268555Z" fill="#1E1E1E"/>
<path d="M12.6107 16.4365C12.5941 16.7718 12.5776 17.1069 12.561 17.4417L7.93025 14.9953L12.6091 12.6206C12.6091 12.9517 12.6091 13.2829 12.6091 13.614H37.7023L12.6107 16.4365Z" fill="#D80000"/>
<path d="M25.69 35.2667H15.1844L23.3502 32.445L24.6591 26.1552L33.3231 26.1497L33.5177 25.1421L37.418 27.665L32.3618 29.9632L32.5973 28.9564L27.0021 28.9769L25.69 35.2667Z" fill="#52CC19"/>
<path d="M26.9989 28.9769L33.3271 26.1497L33.5217 25.1421L37.422 27.665L32.3618 29.9632L32.5973 28.9564L26.9989 28.9769Z" fill="#0DA800"/>
<path d="M56.4338 19.1864H68.2819L67.5609 22.2659H58.8401L57.3878 28.4612H54.2589L55.7112 22.2691L56.2984 19.7667L56.4338 19.1864ZM56.9368 17.0396L57.6577 13.9648H70.822L70.101 17.0396H56.9368Z" fill="#1E1E1E"/>
<path d="M76.1785 13.9333L72.7717 28.4612H69.6428L73.0496 13.9365L76.1785 13.9333Z" fill="#1E1E1E"/>
<path d="M80.5681 22.7847L81.9051 25.3785L79.1103 28.2246L78.8796 28.4612H74.9937L75.8981 27.5411L80.5681 22.7847ZM90.0836 28.4612H86.1986L86.0777 28.2246L84.7159 25.5709L83.6874 23.5731L82.3464 20.9769L82.3521 20.9706L79.2224 14.8739L78.7498 13.9546H82.6348L82.7558 14.1911L84.905 18.3752L89.0159 14.1911L89.2474 13.9546H93.1324L92.2288 14.8747L86.2379 20.9714L89.6118 27.5387L90.0836 28.4612Z" fill="#1E1E1E"/>
<path d="M106.73 21.2349C105.795 25.2178 101.743 28.4582 97.6959 28.4582C93.6491 28.4582 91.1162 25.2178 92.0502 21.2349C92.9842 17.2519 97.0375 14.0107 101.084 14.0107C105.131 14.0107 107.664 17.2511 106.73 21.2349ZM100.377 17.0295C98.0195 17.0295 95.6581 18.917 95.1142 21.238C94.5703 23.5591 96.045 25.4465 98.4032 25.4465C100.761 25.4465 103.122 23.5543 103.666 21.238C104.21 18.9217 102.735 17.0295 100.377 17.0295Z" fill="#1E1E1E"/>
<path d="M109.149 20.4842L111.556 23.5629L110.412 28.4392H107.283L109.149 20.4842ZM122.622 13.9358L119.215 28.4613H118.467L116.768 26.2877L113.915 22.635L112.268 20.5268L109.865 17.4521L110.296 15.6167L110.621 14.233L110.709 13.8601H111.485L117.658 21.7599L119.493 13.9358H122.622Z" fill="#1E1E1E"/>
<path d="M125.289 25.3786H135.321L134.6 28.4581H121.437L122.024 25.9565L122.16 25.3786L123.617 19.1668L126.741 19.1865H135.462L134.741 22.266H126.019L125.289 25.3786ZM138 13.961L137.279 17.0357H124.116L124.702 14.5341L124.838 13.957L138 13.961Z" fill="#1E1E1E"/>
<path d="M55.068 34.7991C54.8092 34.8038 54.5522 34.7566 54.3126 34.6603C54.1053 34.576 53.9231 34.4412 53.783 34.2688C53.6429 34.0963 53.5495 33.8917 53.5116 33.674C53.4679 33.426 53.4775 33.1716 53.5396 32.9274C53.6006 32.6618 53.7091 32.409 53.86 32.1808C54.0105 31.9544 54.1974 31.7536 54.4135 31.5864C54.6307 31.4176 54.8742 31.2845 55.1345 31.1922C55.3977 31.0996 55.6752 31.0526 55.9547 31.0534C56.2118 31.0481 56.4674 31.0928 56.7069 31.1851C56.9139 31.2656 57.0922 31.4043 57.2196 31.584L56.916 31.8316C56.8032 31.683 56.6507 31.5684 56.4754 31.5004C56.2884 31.4311 56.0897 31.3971 55.8898 31.4003C55.6633 31.3996 55.4383 31.4377 55.225 31.513C55.0141 31.5879 54.8171 31.6963 54.6418 31.8339C54.4666 31.9707 54.3146 32.1341 54.1917 32.318C54.0678 32.5032 53.9788 32.7088 53.9289 32.9251C53.8791 33.123 53.8717 33.3289 53.9073 33.5298C53.9404 33.7073 54.0169 33.8742 54.13 34.0162C54.2448 34.157 54.3934 34.2673 54.5625 34.3371C54.7547 34.4152 54.9611 34.4536 55.1689 34.4498C55.3822 34.4499 55.5942 34.418 55.7977 34.3552C56.0161 34.285 56.2197 34.1763 56.3985 34.0343L56.5539 34.3292C56.3396 34.4832 56.1009 34.6012 55.8474 34.6785C55.5954 34.7575 55.3325 34.7982 55.068 34.7991ZM56.183 34.2843L56.5034 32.9274H56.8823L56.5531 34.3316L56.183 34.2843Z" fill="#0DA800"/>
<path d="M60.0224 34.7684L60.8859 31.0881H61.2792L60.4942 34.4317H62.5889L62.5088 34.7684H60.0224Z" fill="#0DA800"/>
<path d="M67.1797 34.7992C66.9225 34.8037 66.6671 34.7565 66.4291 34.6604C66.2209 34.5752 66.0379 34.4396 65.8972 34.2662C65.7587 34.0931 65.6652 33.8893 65.6248 33.6726C65.5804 33.4253 65.5899 33.1716 65.6529 32.9283C65.7136 32.6634 65.8221 32.4113 65.9733 32.1841C66.1233 31.9585 66.3091 31.7581 66.5236 31.5904C66.7385 31.4213 66.9801 31.2881 67.2389 31.1962C67.5013 31.1035 67.778 31.0565 68.0568 31.0574C68.3129 31.0528 68.5673 31.1001 68.8042 31.1962C69.0113 31.2809 69.1933 31.4157 69.3333 31.5881C69.4734 31.7605 69.5669 31.965 69.6052 32.1825C69.6486 32.4306 69.6388 32.6849 69.5764 32.9291C69.5153 33.1947 69.4068 33.4475 69.2559 33.6757C68.9546 34.1312 68.5105 34.4774 67.9911 34.662C67.7308 34.7538 67.4562 34.8002 67.1797 34.7992ZM67.2598 34.4523C67.4811 34.4527 67.7008 34.4145 67.9086 34.3395C68.1162 34.2645 68.3097 34.156 68.4813 34.0187C68.6535 33.8813 68.8025 33.7179 68.9227 33.5346C69.0451 33.3489 69.1333 33.1434 69.183 32.9275C69.2341 32.7304 69.2431 32.5251 69.2095 32.3244C69.1781 32.1485 69.1045 31.9826 68.9948 31.8403C68.8838 31.7001 68.7386 31.5897 68.5727 31.5194C68.3842 31.4413 68.1812 31.4029 67.9767 31.4067C67.7546 31.4064 67.5341 31.4446 67.3254 31.5194C67.1163 31.5943 66.9211 31.7028 66.7479 31.8403C66.5745 31.9774 66.4245 32.1408 66.3033 32.3244C66.1809 32.5101 66.0928 32.7156 66.043 32.9315C65.9933 33.1293 65.9851 33.3351 66.019 33.5362C66.0498 33.7133 66.1243 33.8804 66.236 34.0226C66.3487 34.1632 66.4955 34.2736 66.663 34.3435C66.8524 34.4202 67.0558 34.4575 67.2606 34.4531L67.2598 34.4523Z" fill="#0DA800"/>
<path d="M72.4937 34.7684L73.3564 31.0881H74.9697C75.3873 31.0881 75.6914 31.1704 75.8821 31.3349C76.0727 31.4994 76.1328 31.7325 76.0623 32.0342C76.022 32.222 75.9322 32.396 75.802 32.5388C75.676 32.6758 75.5195 32.7821 75.3446 32.8494C75.1678 32.9191 74.9791 32.9547 74.7887 32.9543L74.9088 32.8281C75.1118 32.8215 75.3138 32.8583 75.5008 32.9361C75.6471 32.9991 75.7642 33.1135 75.8292 33.257C75.8935 33.4264 75.9005 33.6116 75.8493 33.7853C75.8169 33.9345 75.7541 34.0756 75.6648 34.2003C75.5754 34.325 75.4613 34.4305 75.3294 34.5106C75.0544 34.6825 74.6819 34.7684 74.2119 34.7684H72.4937ZM72.9639 34.4475H74.2832C74.5573 34.4593 74.8299 34.4024 75.0754 34.2819C75.175 34.2268 75.2611 34.151 75.3278 34.0598C75.3944 33.9686 75.4401 33.8641 75.4615 33.7537C75.5168 33.5172 75.4712 33.3406 75.3222 33.231C75.1732 33.1214 74.9353 33.0647 74.6076 33.0647H73.2459L73.3204 32.7446H74.5548C74.8114 32.7545 75.0659 32.6962 75.2917 32.5758C75.3848 32.5226 75.4655 32.4507 75.5284 32.3647C75.5914 32.2787 75.6352 32.1806 75.657 32.0768C75.7099 31.8521 75.6658 31.6826 75.5264 31.5746C75.3871 31.4666 75.1676 31.409 74.868 31.409H73.6752L72.9639 34.4475Z" fill="#0DA800"/>
<path d="M78.3789 34.7684L80.9519 31.0881H81.342L82.1862 34.7684H81.7697L81.0095 31.3136H81.1697L78.7907 34.7684H78.3789ZM79.2825 33.7853L79.4739 33.4699H81.6487L81.692 33.7853H79.2825Z" fill="#0DA800"/>
<path d="M85.2654 34.7684L86.1289 31.0881H86.5239L85.7396 34.4317H87.8336L87.7534 34.7684H85.2654Z" fill="#0DA800"/>
<path d="M95.453 34.7684L96.2372 31.4248H94.9227L95.0028 31.0881H98.0267L97.9466 31.4248H96.6321L95.8487 34.7684H95.453Z" fill="#0DA800"/>
<path d="M100.25 34.7684L101.114 31.0881H102.513C102.782 31.0783 103.05 31.1295 103.296 31.2379C103.487 31.3244 103.639 31.4782 103.721 31.6692C103.802 31.8878 103.81 32.1259 103.745 32.3495C103.691 32.5978 103.573 32.8286 103.404 33.0205C103.233 33.2112 103.018 33.3591 102.777 33.4517C102.505 33.555 102.215 33.6059 101.924 33.6015H100.744L100.962 33.4226L100.646 34.7684H100.25ZM100.955 33.4541L100.822 33.2696H101.991C102.365 33.2696 102.668 33.1892 102.9 33.0284C103.132 32.8665 103.293 32.6238 103.35 32.3495C103.419 32.0552 103.376 31.8274 103.22 31.666C103.064 31.5046 102.799 31.4242 102.424 31.4247H101.251L101.47 31.2403L100.955 33.4541ZM102.804 34.7684L102.156 33.4328H102.584L103.237 34.7684H102.804Z" fill="#0DA800"/>
<path d="M105.972 34.7684L108.545 31.0881H108.935L109.781 34.7684H109.365L108.604 31.3136H108.765L106.384 34.7684H105.972ZM106.876 33.7853L107.067 33.4699H109.242L109.285 33.7853H106.876Z" fill="#0DA800"/>
<path d="M112.859 34.7686L113.722 31.0883H115.244C115.592 31.0764 115.936 31.1582 116.239 31.3248C116.495 31.4702 116.69 31.7001 116.789 31.9737C116.893 32.2833 116.903 32.616 116.817 32.9308C116.737 33.2822 116.574 33.6101 116.341 33.8879C116.109 34.1645 115.817 34.3862 115.486 34.5368C115.14 34.6955 114.763 34.7763 114.381 34.7733L112.859 34.7686ZM113.333 34.4319H114.439C114.752 34.4357 115.063 34.3702 115.347 34.2403C115.615 34.1164 115.852 33.9348 116.04 33.7089C116.229 33.482 116.362 33.2147 116.427 32.9284C116.498 32.6709 116.491 32.3986 116.407 32.1448C116.326 31.9229 116.168 31.736 115.962 31.6165C115.712 31.48 115.429 31.4137 115.144 31.4249H114.039L113.333 34.4319Z" fill="#0DA800"/>
<path d="M119.729 34.7684L120.593 31.0881H120.988L120.124 34.7684H119.729Z" fill="#0DA800"/>
<path d="M123.8 34.7684L124.664 31.0881H124.989L126.819 34.2851H126.649L127.398 31.0881H127.788L126.925 34.7684H126.599L124.774 31.5714H124.945L124.195 34.7684H123.8Z" fill="#0DA800"/>
<path d="M132.233 34.7991C131.975 34.8039 131.718 34.7567 131.478 34.6603C131.27 34.5763 131.088 34.4417 130.948 34.2691C130.808 34.0966 130.715 33.8918 130.677 33.674C130.633 33.426 130.642 33.1716 130.705 32.9274C130.766 32.6618 130.875 32.409 131.025 32.1808C131.176 31.9542 131.363 31.7534 131.579 31.5864C131.796 31.4178 132.04 31.2847 132.3 31.1922C132.563 31.0996 132.841 31.0527 133.121 31.0534C133.378 31.0481 133.633 31.0928 133.872 31.1851C134.079 31.2654 134.258 31.4042 134.385 31.584L134.081 31.8316C133.969 31.6829 133.816 31.5682 133.641 31.5004C133.454 31.4311 133.255 31.3971 133.055 31.4003C132.829 31.3996 132.604 31.4378 132.39 31.513C132.18 31.5879 131.983 31.6963 131.808 31.8339C131.633 31.9707 131.481 32.1341 131.358 32.318C131.234 32.5032 131.145 32.7088 131.095 32.9251C131.044 33.1228 131.037 33.329 131.073 33.5298C131.106 33.7074 131.183 33.8744 131.296 34.0162C131.411 34.157 131.559 34.2673 131.728 34.3371C131.919 34.4157 132.124 34.4551 132.331 34.453C132.544 34.453 132.756 34.4211 132.959 34.3584C133.178 34.2883 133.382 34.1796 133.561 34.0375L133.716 34.3324C133.501 34.4863 133.262 34.6043 133.009 34.6816C132.758 34.7592 132.496 34.7988 132.233 34.7991ZM133.348 34.2843L133.668 32.9274H134.047L133.718 34.3316L133.348 34.2843Z" fill="#0DA800"/>
</g>
<defs>
<clipPath id="clip0_877_3302">
<rect width="138" height="46" fill="white"/>
</clipPath>
</defs>
</svg>
