<svg width="50" height="50" viewBox="0 0 50 50" fill="none" xmlns="http://www.w3.org/2000/svg">
<path d="M27.3655 38.3332H16.1748L19.6639 21.7871H22.6614L19.9045 35.2662H24.8731L26.2674 28.4294L35.4964 28.4234L35.7038 27.3282L39.8584 30.0705L34.4725 32.5685L34.7233 31.4741L28.7632 31.4964L27.3655 38.3332Z" fill="#89E55A"/>
<path d="M38.1533 24.8296H28.402C28.6216 23.8075 28.8406 22.7851 29.059 21.7625H35.6523L36.4348 17.8659H13.433C13.4153 18.2304 13.3977 18.5946 13.3801 18.9586L8.44727 16.2994L13.4313 13.7183V14.798H40.161L38.1533 24.8296Z" fill="#FF0000"/>
<path d="M24.8927 3.40568C29.1763 3.39788 33.3637 4.68157 36.9128 7.09059C40.3707 9.43574 43.0778 12.7371 44.7066 16.5951C46.1014 19.9038 46.6506 23.5102 46.3045 27.0864C45.9583 30.6625 44.7277 34.0951 42.7244 37.0721C41.1765 39.3728 39.2036 41.3542 36.9128 42.9088C34.125 44.798 30.935 46.0044 27.5989 46.431C24.2628 46.8576 20.8736 46.4926 17.7035 45.3652C14.5333 44.2379 11.6705 42.3796 9.34511 39.9396C7.01967 37.4997 5.29636 34.5461 4.31356 31.316C3.33076 28.0859 3.11587 24.6693 3.68615 21.3407C4.25643 18.0121 5.59598 14.8642 7.59723 12.1497C9.59848 9.4353 12.2056 7.23001 15.2094 5.71098C18.2131 4.19194 21.5296 3.40149 24.8927 3.4031M24.8927 -0.00244141C11.1447 0.000129464 0 11.1928 0 25.0001C0 38.8074 11.1447 50.0001 24.8927 50.0001C38.6406 50.0001 49.7853 38.8074 49.7853 25.0001C49.7853 11.1928 38.6406 0.000129464 24.8927 0.000129464V-0.00244141Z" fill="#595959"/>
<path d="M13.433 17.8659C13.4153 18.2304 13.3977 18.5946 13.3801 18.9586L8.44727 16.2994L13.4313 13.7183C13.4313 14.0782 13.4313 14.4381 13.4313 14.798H40.161L13.433 17.8659Z" fill="#D80000"/>
<path d="M27.3655 38.3334H16.1748L24.8731 35.2664L26.2674 28.4296L35.4964 28.4236L35.7038 27.3284L39.8584 30.0706L34.4725 32.5687L34.7233 31.4743L28.7632 31.4966L27.3655 38.3334Z" fill="#52CC19"/>
<path d="M28.7598 31.4966L35.5007 28.4236L35.708 27.3284L39.8626 30.0706L34.4725 32.5687L34.7233 31.4743L28.7598 31.4966Z" fill="#0DA800"/>
</svg>
