<svg width="260" height="251" viewBox="0 0 260 251" fill="none" xmlns="http://www.w3.org/2000/svg">
<path d="M73.2656 131.4C74.1376 128.717 72.6688 125.835 69.9851 124.964L6.69676 104.404C2.72629 103.115 -1.03166 106.872 0.25842 110.841L35.2433 218.49C36.7729 223.196 43.4326 223.196 44.9621 218.49L73.2656 131.4Z" fill="#FF2B00"/>
<path d="M98.8502 103.516C97.6624 107.171 100.785 110.779 104.573 110.129L242.219 86.5261C246.674 85.7621 248.016 80.0151 244.358 77.3586L139.207 0.978203C136.398 -1.06168 132.417 0.231784 131.344 3.53238L98.8502 103.516Z" fill="#FF2B00"/>
<path d="M74.8408 110.022C77.5246 110.894 80.4072 109.426 81.2792 106.743L109.583 19.653C111.112 14.9466 105.724 11.0329 101.72 13.9416L10.1282 80.4722C6.7507 82.9255 7.58208 88.1734 11.5525 89.4632L74.8408 110.022Z" fill="#FF2B00"/>
<path d="M191.582 242.326C194.738 245.562 192.444 251 187.923 251L57.9484 251C54.4772 251 52.0164 247.614 53.089 244.313L85.5827 144.33C86.7706 140.675 91.4179 139.591 94.101 142.343L191.582 242.326Z" fill="#FF2B00"/>
<path d="M217.83 236.052C216.642 239.706 211.995 240.791 209.312 238.039L107.585 133.701C104.713 130.754 106.324 125.796 110.38 125.1L254.021 100.469C257.809 99.8196 260.932 103.428 259.744 107.083L217.83 236.052Z" fill="#FF2B00"/>
</svg>
