<?xml version="1.0" encoding="utf-8"?>
<!-- Generator: Adobe Illustrator 24.1.2, SVG Export Plug-In . SVG Version: 6.00 Build 0)  -->
<svg version="1.1" id="Слой_1" xmlns="http://www.w3.org/2000/svg" xmlns:xlink="http://www.w3.org/1999/xlink" x="0px" y="0px"
	 viewBox="0 0 740.6 307.6" style="enable-background:new 0 0 740.6 307.6;" xml:space="preserve">
<style type="text/css">
	.st0{fill:#2C2A3B;}
	.st1{fill:url(#SVGID_1_);}
	.st2{fill-rule:evenodd;clip-rule:evenodd;fill:#2C2A3B;}
	.st3{fill-rule:evenodd;clip-rule:evenodd;fill:#FF8F44;}
</style>
<g>
	<path class="st0" d="M238.1,179.2H223v-73h28.2c11,0,19.1,3.1,23.2,8.1s5.6,10.4,5.6,17c0,7-2.3,12.8-7,17.6
		c-4.7,4.9-11.9,7.3-21.9,7.3H238v23H238.1z M238.1,121.3v19.8H251c8.9,0,13.4-3.3,13.4-9.9c0-6.6-4.3-9.9-12.8-9.9
		C251.6,121.3,238.1,121.3,238.1,121.3z"/>
	<path class="st0" d="M289.5,179.2v-54.3h14.1v2.2c1.2-1.7,4.7-3.2,7.8-3.2c5.1,0,7.5,1.4,9.9,4.7l-7.2,12.1
		c-0.7-1.5-2.2-2.2-4.6-2.2c-3,0-5,1.9-5.9,5.6v35.1L289.5,179.2L289.5,179.2z"/>
	<path class="st0" d="M332.6,131.7c5.1-5.3,11.6-7.9,19.6-7.9s14.7,2.6,19.8,7.9c5.1,5.3,7.7,12,7.7,20.2c0,8.1-2.5,14.8-7.7,20.1
		c-5.1,5.3-11.8,7.9-19.8,7.9c-7.9,0-14.4-2.6-19.5-7.9c-5.1-5.3-7.8-12-7.8-20.1C325,143.7,327.5,137,332.6,131.7z M352.3,165.9
		c7.8,0,12.9-5.3,12.9-14c0-4.3-1.3-7.7-3.7-10.3c-2.4-2.5-5.5-3.8-9.2-3.8s-6.7,1.3-9.1,3.8s-3.6,5.9-3.6,10.3
		C339.5,160,344.8,165.9,352.3,165.9z"/>
	<path class="st0" d="M388,139v-14.1h7v-1c0-14.7,7.6-21.7,18.4-21.7c6.1,0,10.7,2.1,13.7,6.4l-7.8,9.8c-1.2-1.4-2.8-2.1-5.1-2.1
		c-3.5,0-5.2,2.5-5.2,7.6v1h12.7V139h-12.6v40.2H395V139H388z"/>
	<path class="st0" d="M439.4,103c4.6,0,7.9,3.2,7.9,7.5c0,4.5-3.3,7.7-7.9,7.7c-5,0-8-3.1-8-7.7C431.5,106.2,434.8,103,439.4,103z
		 M432.4,179.2v-54.3h14.1v54.3H432.4z"/>
	<path class="st0" d="M526.2,179.2h-18.4c-16.4-24.3-32.8-48.7-49.2-73h18.2C493.2,130.5,509.7,154.8,526.2,179.2z"/>
	<path class="st0" d="M545.5,115.9c6.7-7.2,14.9-10.7,24.6-10.7c9.6,0,17.8,3.5,24.5,10.6s10,16.1,10,26.8c0,10.6-3.3,19.5-10,26.7
		S579.7,180,570.1,180c-9.7,0-17.9-3.5-24.6-10.6c-6.7-7.1-10-16.1-10-26.8C535.5,132.1,538.8,123.1,545.5,115.9z M552.2,162.9
		c5,5.4,10.9,8.1,17.9,8.1c7.2,0,13.2-2.7,18.1-8c4.8-5.3,7.2-12.1,7.2-20.3s-2.4-15-7.4-20.3s-11-8-17.9-8c-7.1,0-13,2.7-18,8
		s-7.4,12.1-7.4,20.3C544.7,150.8,547.2,157.6,552.2,162.9z"/>
	<path class="st0" d="M619.8,179.2v-54.3h8.2v7.1c3.2-5.3,9.8-8.2,17.3-8.2c13.7,0,20.5,8.1,20.5,24.5v30.9h-8.2v-29.8
		c0-12-4.8-17.3-14.8-17.3c-6.2,0-12.1,4.4-14.9,11v36.2L619.8,179.2L619.8,179.2z"/>
	<path class="st0" d="M727.1,168.8c-4.7,7.5-11.4,11.3-20.2,11.3c-8.1,0-14.6-2.6-19.5-7.7c-5-5.1-7.4-11.9-7.4-20.5
		c0-8.2,2.2-15,6.8-20.3c4.5-5.3,10.8-7.9,18.9-7.9c6.7,0,12.3,2.3,16.7,6.8c4.4,4.5,6.6,10.4,6.6,17.8c0,2.4-0.2,4.6-0.5,6.6h-39.8
		c0.5,10.7,7.9,17,18.5,17c5.9,0,11.6-3.3,14.7-8.2L727.1,168.8z M688.6,146.9h31.8c-0.5-9.6-6.2-15.2-15.2-15.2
		C695.9,131.7,689.9,137.7,688.6,146.9z"/>
</g>
<g>
	<path class="st0" d="M241.4,210.7c-1.6,2.5-4.9,4.1-8.4,4.1c-3.4,0-6.1-1.1-8.2-3.3s-3-5.1-3-8.7c0-3.4,1-6.3,3-8.6
		s4.7-3.4,7.9-3.4c3.7,0,6.8,1.6,8.3,3.9l-1.8,1.9c-1.8-1.9-3.9-2.9-6.4-2.9s-4.5,0.8-5.9,2.5c-1.5,1.7-2.2,3.9-2.2,6.6
		c0,2.7,0.8,4.9,2.3,6.6c1.6,1.7,3.6,2.5,6.1,2.5c2.7,0,4.9-1,6.6-3.1L241.4,210.7z"/>
	<path class="st0" d="M246.7,214.5l9.5-23.4h2.2l9.5,23.4H265l-2.4-5.9H252l-2.4,5.9H246.7z M257.3,195.4L253,206h8.5L257.3,195.4z"
		/>
	<path class="st0" d="M278.1,214.5h-2.8v-23.3h8.4c5.9,0,8.9,2.4,8.9,7.3c0,2.1-0.7,3.9-2.1,5.3c-1.5,1.4-3.7,2.1-6.8,2.1h-5.6
		V214.5z M278.1,194v9.1h5.5c4.1,0,6.1-1.7,6.1-4.6c0-3-2-4.5-5.9-4.5H278.1z"/>
	<path class="st0" d="M300.8,214.5v-23.3h2.8v23.3H300.8z"/>
	<path class="st0" d="M310.9,194v-2.8h17.9v2.8h-7.6v20.5h-2.8V194H310.9z"/>
	<path class="st0" d="M330.9,214.5l9.5-23.4h2.2l9.5,23.4h-2.9l-2.4-5.9h-10.6l-2.4,5.9H330.9z M341.4,195.4l-4.2,10.6h8.5
		L341.4,195.4z"/>
	<path class="st0" d="M359.4,214.5v-23.3h2.8v20.5h12.9v2.8H359.4z"/>
</g>
<g id="Прямоугольник_1_7_">
	<g>
		
			<linearGradient id="SVGID_1_" gradientUnits="userSpaceOnUse" x1="433" y1="166.5717" x2="553.6" y2="166.5717" gradientTransform="matrix(1 0 0 -1 0 306.7717)">
			<stop  offset="0" style="stop-color:#FF5800"/>
			<stop  offset="1" style="stop-color:#FF8F44"/>
		</linearGradient>
		<polygon class="st1" points="534.4,65.5 433,214.9 452.2,214.9 553.6,65.5 		"/>
	</g>
</g>
<polygon class="st2" points="118.1,161.6 118.1,199.8 79.8,199.9 79.8,220.8 118.1,220.8 139,220.8 139.1,199.8 139.1,161.6 "/>
<polygon class="st2" points="70.3,93 11.1,93.1 11,114.1 11,114.1 11,152.3 32,152.3 32,114 70.3,114 "/>
<polygon class="st3" points="139.2,93 118.2,93 118.2,93 79.9,93 79.9,114 104.2,114 69.9,148.2 84,162.3 118.2,128.1 118.1,152.2 
	139.1,152.2 139.1,114 139.1,114 "/>
</svg>
