<svg width="20" height="20" viewBox="0 0 20 20" fill="none" xmlns="http://www.w3.org/2000/svg">
<path d="M16.875 9.63379C17.2201 9.63379 17.4999 9.91366 17.5 10.2588V15.8838C17.5 16.9193 16.6605 17.7588 15.625 17.7588H4.375C3.33947 17.7588 2.5 16.9193 2.5 15.8838V10.2588C2.50005 9.91366 2.77985 9.63379 3.125 9.63379C3.47015 9.63379 3.74995 9.91366 3.75 10.2588V15.8838C3.75 16.229 4.02982 16.5088 4.375 16.5088H15.625C15.9702 16.5088 16.25 16.229 16.25 15.8838V10.2588C16.2501 9.91366 16.5299 9.63379 16.875 9.63379ZM13.1953 4.3252C13.4394 4.56927 13.4394 4.96491 13.1953 5.20898C12.9512 5.45306 12.5556 5.45306 12.3115 5.20898L10.7451 3.64258V13.624C10.7451 13.9692 10.4653 14.249 10.1201 14.249C9.77499 14.249 9.49512 13.9692 9.49512 13.624V3.64258L7.68945 5.44824C7.44538 5.69232 7.04974 5.69232 6.80566 5.44824C6.56168 5.20416 6.56162 4.8085 6.80566 4.56445L10.1201 1.25L13.1953 4.3252Z" fill="#FF7255"/>
</svg>
