<svg width="342" height="331" viewBox="0 0 342 331" fill="none" xmlns="http://www.w3.org/2000/svg">
<path d="M96.3724 173.281C97.5194 169.743 95.5875 165.942 92.0573 164.793L8.80881 137.681C3.58611 135.98 -1.35704 140.935 0.339921 146.169L46.3585 288.128C48.3704 294.335 57.1306 294.335 59.1425 288.128L96.3724 173.281Z" fill="#FF2B00"/>
<path d="M130.026 136.509C128.464 141.328 132.571 146.087 137.554 145.23L318.611 114.104C324.472 113.097 326.236 105.518 321.425 102.015L183.11 1.28998C179.416 -1.40006 174.179 0.305659 172.768 4.65824L130.026 136.509Z" fill="#FF2B00"/>
<path d="M98.4445 145.089C101.975 146.239 105.766 144.302 106.913 140.764L144.143 25.9169C146.155 19.7104 139.068 14.5494 133.801 18.3852L13.3225 106.121C8.87976 109.356 9.97335 116.277 15.196 117.977L98.4445 145.089Z" fill="#FF2B00"/>
<path d="M252.004 319.561C256.155 323.829 253.138 331 247.191 331L76.2245 331C71.6585 331 68.4215 326.534 69.8325 322.182L112.574 190.331C114.137 185.512 120.25 184.082 123.779 187.711L252.004 319.561Z" fill="#FF2B00"/>
<path d="M286.53 311.287C284.968 316.107 278.855 317.537 275.326 313.908L141.516 176.314C137.737 172.429 139.857 165.89 145.192 164.973L334.135 132.491C339.119 131.635 343.226 136.393 341.663 141.213L286.53 311.287Z" fill="#FF2B00"/>
</svg>
