<svg width="32" height="32" viewBox="0 0 32 32" fill="none" xmlns="http://www.w3.org/2000/svg">
<path fill-rule="evenodd" clip-rule="evenodd" d="M16 3C14.5652 3 13.4215 4.14698 13.4215 5.53793C13.4215 6.92888 14.5652 8.07586 16 8.07586C17.4348 8.07586 18.5785 6.92888 18.5785 5.53793C18.5785 4.14698 17.4348 3 16 3ZM11.4215 5.53793C11.4215 3.02099 13.4822 1 16 1C18.5178 1 20.5785 3.02099 20.5785 5.53793C20.5785 8.05487 18.5178 10.0759 16 10.0759C13.4822 10.0759 11.4215 8.05487 11.4215 5.53793ZM7.58744 7.71724C6.15262 7.71724 5.00897 8.86422 5.00897 10.2552C5.00897 11.6461 6.15262 12.7931 7.58744 12.7931C9.02227 12.7931 10.1659 11.6461 10.1659 10.2552C10.1659 8.86422 9.02227 7.71724 7.58744 7.71724ZM3.00897 10.2552C3.00897 7.73823 5.0696 5.71724 7.58744 5.71724C10.1053 5.71724 12.1659 7.73823 12.1659 10.2552C12.1659 11.7246 11.4635 13.025 10.3779 13.8529C10.7374 14.0332 11.0776 14.2458 11.3946 14.4869L10.1839 16.0788C9.43131 15.5064 8.48888 15.1655 7.46188 15.1655C4.98688 15.1655 3 17.1462 3 19.5655V20.9241H9.72197V22.9241H1V19.5655C1 17.0032 2.5168 14.8016 4.70112 13.7778C3.67016 12.9475 3.00897 11.6809 3.00897 10.2552ZM24.4126 7.71724C22.9777 7.71724 21.8341 8.86422 21.8341 10.2552C21.8341 11.6461 22.9777 12.7931 24.4126 12.7931C25.8474 12.7931 26.991 11.6461 26.991 10.2552C26.991 8.86422 25.8474 7.71724 24.4126 7.71724ZM19.8341 10.2552C19.8341 7.73823 21.8947 5.71724 24.4126 5.71724C26.9304 5.71724 28.991 7.73823 28.991 10.2552C28.991 11.6809 28.3298 12.9475 27.2989 13.7778C29.4832 14.8016 31 17.0032 31 19.5655V22.9241H22.278V20.9241H29V19.5655C29 17.1462 27.0131 15.1655 24.5381 15.1655C23.5111 15.1655 22.5687 15.5064 21.8161 16.0788L20.6054 14.4869C20.9224 14.2458 21.2626 14.0332 21.6221 13.8529C20.5365 13.025 19.8341 11.7246 19.8341 10.2552ZM16 14.7931C14.5652 14.7931 13.4215 15.9401 13.4215 17.331C13.4215 18.722 14.5652 19.869 16 19.869C17.4348 19.869 18.5785 18.722 18.5785 17.331C18.5785 15.9401 17.4348 14.7931 16 14.7931ZM11.4215 17.331C11.4215 14.8141 13.4822 12.7931 16 12.7931C18.5178 12.7931 20.5785 14.8141 20.5785 17.331C20.5785 18.7784 19.8971 20.0617 18.8392 20.8911C20.9813 21.9305 22.4619 24.1098 22.4619 26.6414V30H9.53812V26.6414C9.53812 24.1098 11.0187 21.9305 13.1608 20.8911C12.1029 20.0617 11.4215 18.7784 11.4215 17.331ZM16 22.2414C13.525 22.2414 11.5381 24.222 11.5381 26.6414V28H20.4619V26.6414C20.4619 24.222 18.475 22.2414 16 22.2414Z" fill="black"/>
</svg>
